<svg width="360" height="640" viewBox="0 0 360 640" fill="none" xmlns="http://www.w3.org/2000/svg">
<g clip-path="url(#clip0)">
<rect width="360" height="640" fill="white"/>
<g clip-path="url(#clip1)">
<path opacity="0.5" d="M244.522 370.552L244.631 370.536C241.228 360.119 233.9 360.284 231.941 360.526C231.044 360.226 230.104 360.073 229.158 360.074H228.986V357.698L229.254 357.594C229.228 357.203 229.15 356.818 229.021 356.449C231.097 355.605 232.889 354.189 234.188 352.364C235.554 350.933 236.582 349.215 237.2 347.336C237.817 345.456 238.006 343.463 237.755 341.501C237.503 339.539 236.817 337.658 235.746 335.995C234.675 334.332 233.247 332.929 231.564 331.888C231.624 331.821 231.681 331.75 231.734 331.676C232.156 331.368 232.474 330.938 232.643 330.443C232.812 329.948 232.824 329.413 232.678 328.911C232.532 328.409 232.235 327.964 231.827 327.637C231.419 327.31 230.921 327.116 230.399 327.083C230.844 326.034 230.924 324.867 230.626 323.767C230.329 322.667 229.671 321.699 228.758 321.018C227.845 320.337 226.73 319.981 225.591 320.009C224.452 320.037 223.356 320.446 222.477 321.17C223.252 320.758 224.121 320.554 224.999 320.577C225.876 320.6 226.733 320.849 227.486 321.301C228.239 321.754 228.861 322.393 229.294 323.157C229.726 323.921 229.954 324.784 229.954 325.662C229.954 325.718 229.954 325.774 229.954 325.829C229.939 325.089 229.763 324.361 229.438 323.697C229.114 323.032 228.647 322.446 228.073 321.979C227.498 321.513 226.829 321.178 226.111 320.997C225.393 320.816 224.645 320.793 223.918 320.931C223.191 321.069 222.503 321.364 221.901 321.795C221.3 322.227 220.8 322.784 220.436 323.428C220.072 324.073 219.853 324.789 219.794 325.526C219.735 326.264 219.838 327.006 220.096 327.7C219.707 327.784 219.344 327.958 219.035 328.208C218.726 328.458 218.48 328.777 218.316 329.139C218.153 329.501 218.076 329.897 218.093 330.294C218.109 330.691 218.219 331.079 218.412 331.426C216.57 332.393 214.981 333.779 213.773 335.473C212.565 337.167 211.771 339.12 211.456 341.177C211.141 343.233 211.313 345.335 211.958 347.312C212.603 349.29 213.704 351.089 215.171 352.564C216.411 354.228 218.068 355.536 219.974 356.355V360.074C218.98 360.084 217.996 360.263 217.062 360.605C217.062 360.605 207.828 358.446 203.879 370.534C202.209 374.963 200.904 381.631 200.512 391.611C200.512 391.611 201.253 399.488 213.217 392.038L213.763 398.712H213.859V400.972H213.738L213.834 401.161V401.222C204.165 409.564 207.848 479.562 207.848 479.562L213.174 466.478C213.644 471.533 213.248 477.277 212.975 480.189H212.638L212.236 486.394C212.217 486.548 212.231 486.704 212.276 486.852C212.322 486.999 212.398 487.136 212.5 487.252C212.603 487.368 212.729 487.461 212.87 487.524C213.011 487.588 213.164 487.621 213.318 487.621H221.549C221.645 487.621 221.74 487.596 221.824 487.55C221.908 487.503 221.979 487.435 222.03 487.354C222.081 487.272 222.11 487.178 222.114 487.082C222.118 486.986 222.098 486.89 222.055 486.804L220.629 483.953C220.016 482.727 219.712 481.371 219.744 480.002L220.477 448.548L222.376 443.884L229.284 432.193L230.389 479.693C230.421 481.063 230.117 482.419 229.504 483.644L228.078 486.496C228.035 486.582 228.015 486.677 228.019 486.774C228.023 486.87 228.052 486.963 228.103 487.045C228.154 487.127 228.224 487.195 228.309 487.241C228.393 487.288 228.488 487.312 228.584 487.312H236.81C236.984 487.312 237.156 487.27 237.311 487.19C237.466 487.109 237.599 486.992 237.699 486.85L237.891 488.366L237.699 486.85C237.855 486.629 237.924 486.359 237.891 486.091L237.49 480.196L237.181 480.174C236.85 476.746 236.258 468.561 237.434 462.812C238.536 457.248 239.262 451.616 239.608 445.954L240.92 426.369H241.127L241.198 425.057L241.504 425.072C241.504 425.072 245.331 409.505 235.649 401.207H235.477L235.599 400.966H235.265V398.704H235.748L236.195 392.518C247.444 399.283 247.871 391.603 247.871 391.603C247.492 381.644 246.188 374.988 244.522 370.552ZM232.214 329.894C232.214 329.939 232.214 329.985 232.214 330.033C232.181 329.458 231.954 328.911 231.57 328.482C231.186 328.053 230.668 327.766 230.101 327.669C230.15 327.585 230.197 327.501 230.242 327.417C230.802 327.546 231.302 327.862 231.66 328.311C232.018 328.761 232.213 329.319 232.214 329.894ZM208.379 386.576L211.759 374.53L212.575 384.493L208.379 386.576ZM236.772 384.69L237.414 375.779L241.405 386.869L236.772 384.69Z" fill="url(#paint0_linear)"/>
<path d="M224.565 358.534C231.587 358.534 237.28 352.842 237.28 345.819C237.28 338.797 231.587 333.104 224.565 333.104C217.542 333.104 211.85 338.797 211.85 345.819C211.85 352.842 217.542 358.534 224.565 358.534Z" fill="#F55F44"/>
<path d="M236.782 478.434C236.782 478.434 235.404 467.408 236.857 460.285C237.912 454.961 238.607 449.572 238.938 444.154L240.601 419.326L228.842 421.53L230.118 476.437" fill="#FDA57D"/>
<path d="M230.118 476.437C230.151 477.752 229.86 479.054 229.272 480.229L227.909 482.957C227.868 483.039 227.849 483.13 227.853 483.222C227.858 483.314 227.885 483.403 227.934 483.481C227.982 483.559 228.049 483.624 228.13 483.669C228.21 483.714 228.3 483.737 228.392 483.738H236.261C236.409 483.737 236.555 483.706 236.689 483.645C236.824 483.584 236.944 483.495 237.042 483.384C237.14 483.273 237.213 483.143 237.256 483.002C237.3 482.86 237.313 482.711 237.295 482.565L236.911 476.925" fill="#333333"/>
<path d="M213.273 478.73C213.273 478.73 214.65 467.704 213.197 460.58C212.142 455.256 211.447 449.867 211.117 444.45L209.453 419.622L221.213 421.826L219.936 476.733" fill="#FDA57D"/>
<path d="M219.936 476.736C219.904 478.05 220.195 479.352 220.783 480.527L222.146 483.255C222.186 483.337 222.205 483.429 222.201 483.52C222.197 483.612 222.169 483.701 222.121 483.78C222.073 483.858 222.005 483.922 221.925 483.967C221.845 484.012 221.755 484.036 221.663 484.036H213.794C213.646 484.036 213.5 484.004 213.365 483.943C213.23 483.882 213.11 483.793 213.013 483.682C212.915 483.572 212.842 483.441 212.798 483.3C212.755 483.159 212.741 483.01 212.76 482.863L213.144 476.925" fill="#333333"/>
<path d="M234.797 396.389H214.286V404.328H234.797V396.389Z" fill="#FDA57D"/>
<path d="M237.052 482.782V482.785L237.297 484.746L237.052 482.782Z" fill="black"/>
<path opacity="0.05" d="M229.112 425.072L240.391 425.418L240.601 421.518L228.844 423.722L229.112 425.072Z" fill="black"/>
<path opacity="0.05" d="M221.013 425.072L209.734 425.418L209.524 421.518L221.281 423.722L221.013 425.072Z" fill="black"/>
<path d="M235.26 398.949H214.193L211.85 370.362C211.85 368.14 212.733 366.008 214.304 364.437C215.876 362.865 218.007 361.982 220.229 361.982H228.943C231.165 361.982 233.297 362.865 234.868 364.437C236.44 366.008 237.323 368.14 237.323 370.362L235.26 398.949Z" fill="#CA00AB"/>
<path d="M226.352 354.657H222.563C221.222 354.657 220.136 355.743 220.136 357.083V364.113C220.136 365.453 221.222 366.54 222.563 366.54H226.352C227.692 366.54 228.779 365.453 228.779 364.113V357.083C228.779 355.743 227.692 354.657 226.352 354.657Z" fill="#FDA57D"/>
<path d="M214.193 401.111L221.574 415.575H226.857V423.522L240.761 424.185C240.761 424.185 244.423 409.291 235.159 401.351L214.193 401.111Z" fill="#CA00AB"/>
<path d="M235.118 401.111L227.747 415.575L233.255 423.891L222.454 442.175L208.551 476.301C208.551 476.301 205.012 409.278 214.287 401.338L235.118 401.111Z" fill="#CA00AB"/>
<g opacity="0.05">
<path opacity="0.05" d="M214.58 367.283C214.667 366.838 214.791 366.401 214.949 365.976C214.058 366.761 213.345 367.727 212.857 368.809C212.369 369.892 212.117 371.066 212.118 372.253L212.916 381.993L214.58 367.283Z" fill="black"/>
</g>
<g opacity="0.05">
<path opacity="0.05" d="M234.441 370.253C234.353 369.808 234.23 369.371 234.072 368.946C234.962 369.732 235.675 370.697 236.164 371.78C236.652 372.862 236.904 374.036 236.903 375.223L236.104 384.963L234.441 370.253Z" fill="black"/>
</g>
<path d="M240.917 366.947C243.698 370.42 246.289 377.609 246.86 392.154C246.86 392.154 246.198 404.066 224.363 384.214L223.7 370.86C223.7 370.788 223.716 370.717 223.746 370.652C223.777 370.587 223.822 370.529 223.877 370.484C223.933 370.438 223.998 370.405 224.068 370.388C224.138 370.371 224.211 370.37 224.282 370.385C224.868 370.517 225.391 370.844 225.767 371.313C226.142 371.782 226.347 372.365 226.347 372.966V380.906L240.662 387.604L234.297 369.932C233.622 366.118 238.493 363.913 240.917 366.947Z" fill="#FDA57D"/>
<path d="M231.135 362.49C231.135 362.49 239.982 360.425 243.746 371.99L234.972 373.155L231.135 362.49Z" fill="#CA00AB"/>
<path d="M208.859 365.496C205.614 368.213 202.181 375.167 201.516 392.157C201.516 392.157 202.623 403.947 224.459 384.096L224.673 370.863C224.674 370.791 224.658 370.719 224.627 370.654C224.597 370.589 224.552 370.532 224.496 370.486C224.44 370.441 224.375 370.408 224.305 370.391C224.235 370.374 224.162 370.373 224.092 370.387C223.506 370.519 222.983 370.846 222.608 371.315C222.232 371.783 222.028 372.365 222.027 372.966V380.906L209.062 387.336L214.297 368.668C214.84 365.61 211.248 363.494 208.859 365.496Z" fill="#FDA57D"/>
<path d="M217.348 362.49C217.348 362.49 208.5 360.425 204.736 371.99L213.655 373.021L217.348 362.49Z" fill="#CA00AB"/>
<path opacity="0.05" d="M224.459 370.592H224.188V384.096H224.459V370.592Z" fill="black"/>
<path opacity="0.05" d="M224.86 360.415C226.292 360.415 227.71 360.142 229.039 359.609C228.971 358.559 228.506 357.575 227.739 356.856C226.972 356.137 225.96 355.736 224.908 355.736H224.554C223.521 355.736 222.524 356.123 221.761 356.82C220.997 357.518 220.522 358.475 220.429 359.505C221.829 360.106 223.337 360.416 224.86 360.415Z" fill="black"/>
<path d="M224.587 359.336C230.8 359.336 235.836 354.299 235.836 348.087C235.836 341.874 230.8 336.838 224.587 336.838C218.375 336.838 213.339 341.874 213.339 348.087C213.339 354.299 218.375 359.336 224.587 359.336Z" fill="#FDA57D"/>
<path d="M220.778 335.809C222.122 335.809 223.212 334.719 223.212 333.375C223.212 332.03 222.122 330.94 220.778 330.94C219.434 330.94 218.344 332.03 218.344 333.375C218.344 334.719 219.434 335.809 220.778 335.809Z" fill="#F55F44"/>
<path d="M229.433 335.809C230.778 335.809 231.868 334.719 231.868 333.375C231.868 332.03 230.778 330.94 229.433 330.94C228.089 330.94 226.999 332.03 226.999 333.375C226.999 334.719 228.089 335.809 229.433 335.809Z" fill="#F55F44"/>
<path d="M224.835 334.186C227.524 334.186 229.704 332.006 229.704 329.318C229.704 326.629 227.524 324.449 224.835 324.449C222.146 324.449 219.967 326.629 219.967 329.318C219.967 332.006 222.146 334.186 224.835 334.186Z" fill="#F55F44"/>
<path d="M229.974 330.4C229.491 330.399 229.018 330.544 228.617 330.814C229.175 330.615 229.788 330.627 230.338 330.847C230.889 331.067 231.34 331.481 231.607 332.01C231.874 332.54 231.939 333.149 231.789 333.722C231.639 334.296 231.285 334.795 230.793 335.127C231.332 334.933 231.785 334.555 232.072 334.061C232.36 333.566 232.464 332.986 232.367 332.422C232.27 331.858 231.977 331.346 231.539 330.977C231.102 330.608 230.549 330.404 229.977 330.402L229.974 330.4Z" fill="#F55F44"/>
<path d="M225.644 323.638C224.514 323.636 223.418 324.029 222.547 324.75C223.613 324.183 224.851 324.032 226.022 324.327C227.192 324.621 228.212 325.34 228.882 326.344C229.552 327.347 229.826 328.564 229.65 329.758C229.474 330.952 228.861 332.039 227.929 332.806C228.888 332.297 229.649 331.482 230.092 330.49C230.534 329.498 230.632 328.387 230.371 327.334C230.11 326.28 229.503 325.344 228.649 324.674C227.794 324.004 226.74 323.639 225.654 323.638H225.644Z" fill="#F55F44"/>
<path d="M216.448 337.973C216.448 337.973 217.8 346.899 234.843 342.03L226.458 334.727L216.448 337.973Z" fill="#F55F44"/>
<path opacity="0.05" d="M220.457 446.442L213.753 464.117V464.726L220.457 447.661V446.442Z" fill="black"/>
<g opacity="0.5">
<path opacity="0.5" d="M274.456 388.413H274.082V390.534H274.456V388.413Z" fill="#47E6B1"/>
<path opacity="0.5" d="M275.329 389.662V389.288H273.208V389.662H275.329Z" fill="#47E6B1"/>
</g>
<g opacity="0.5">
<path opacity="0.5" d="M185.982 434.673H185.608V436.793H185.982V434.673Z" fill="#47E6B1"/>
<path opacity="0.5" d="M186.855 435.921V435.547H184.734V435.921H186.855Z" fill="#47E6B1"/>
</g>
<g opacity="0.5">
<path opacity="0.5" d="M104.071 451.045H103.696V453.166H104.071V451.045Z" fill="#47E6B1"/>
<path opacity="0.5" d="M104.943 452.291V451.917H102.822V452.291H104.943Z" fill="#47E6B1"/>
</g>
<g opacity="0.5">
<path opacity="0.5" d="M190.32 457.62H189.946V459.741H190.32V457.62Z" fill="#47E6B1"/>
<path opacity="0.5" d="M191.195 458.866V458.492H189.074V458.866H191.195Z" fill="#47E6B1"/>
</g>
<path opacity="0.5" d="M218.015 512.065C217.912 512.019 217.83 511.938 217.783 511.836C217.737 511.734 217.729 511.618 217.762 511.511C217.764 511.494 217.764 511.477 217.762 511.46V511.46C217.765 511.411 217.751 511.363 217.724 511.322C217.697 511.281 217.658 511.25 217.612 511.233C217.566 511.216 217.516 511.214 217.469 511.228C217.422 511.242 217.38 511.27 217.35 511.309C217.34 511.323 217.332 511.338 217.325 511.354C217.28 511.457 217.198 511.539 217.096 511.586C216.994 511.633 216.879 511.64 216.771 511.607H216.721C216.672 511.605 216.623 511.618 216.583 511.645C216.542 511.672 216.511 511.711 216.494 511.757C216.477 511.803 216.475 511.854 216.489 511.901C216.502 511.948 216.53 511.989 216.569 512.019C216.583 512.029 216.599 512.038 216.615 512.044C216.717 512.09 216.8 512.171 216.846 512.273C216.893 512.375 216.901 512.491 216.867 512.598C216.866 512.615 216.866 512.632 216.867 512.649V512.649C216.865 512.697 216.878 512.746 216.905 512.787C216.932 512.828 216.972 512.859 217.018 512.876C217.064 512.893 217.114 512.894 217.161 512.881C217.208 512.867 217.25 512.839 217.28 512.8C217.29 512.786 217.298 512.771 217.305 512.755C217.35 512.652 217.431 512.57 217.533 512.523C217.636 512.476 217.751 512.469 217.858 512.502H217.909C217.958 512.504 218.006 512.491 218.047 512.464C218.088 512.437 218.119 512.398 218.136 512.352C218.153 512.306 218.155 512.255 218.141 512.208C218.128 512.161 218.099 512.12 218.061 512.09V512.09C218.047 512.08 218.031 512.071 218.015 512.065V512.065Z" fill="#4D8AF0"/>
<path opacity="0.5" d="M276.562 436.182C276.459 436.136 276.377 436.055 276.33 435.953C276.284 435.851 276.276 435.735 276.309 435.628C276.311 435.611 276.311 435.594 276.309 435.577V435.577C276.312 435.529 276.298 435.48 276.271 435.439C276.244 435.398 276.205 435.367 276.159 435.35C276.113 435.333 276.063 435.332 276.016 435.345C275.969 435.359 275.927 435.387 275.897 435.426V435.426C275.887 435.44 275.879 435.455 275.872 435.471C275.827 435.574 275.745 435.656 275.643 435.703C275.541 435.75 275.426 435.757 275.318 435.724H275.268C275.219 435.722 275.17 435.735 275.13 435.762C275.089 435.789 275.058 435.828 275.041 435.874C275.024 435.92 275.022 435.971 275.036 436.018C275.049 436.065 275.077 436.106 275.116 436.136V436.136C275.13 436.146 275.146 436.155 275.162 436.161C275.264 436.207 275.347 436.288 275.393 436.39C275.44 436.492 275.448 436.608 275.414 436.715C275.413 436.732 275.413 436.749 275.414 436.766V436.766C275.412 436.815 275.425 436.863 275.452 436.904C275.479 436.945 275.519 436.976 275.565 436.993C275.611 437.01 275.661 437.012 275.708 436.998C275.755 436.984 275.797 436.956 275.827 436.917V436.917C275.837 436.903 275.845 436.888 275.852 436.872C275.897 436.769 275.978 436.687 276.08 436.64C276.183 436.593 276.298 436.586 276.405 436.619H276.456C276.505 436.621 276.553 436.608 276.594 436.581C276.635 436.554 276.666 436.515 276.683 436.469C276.7 436.423 276.702 436.372 276.688 436.325C276.675 436.278 276.646 436.237 276.608 436.207V436.207C276.594 436.197 276.578 436.188 276.562 436.182V436.182Z" fill="#4D8AF0"/>
<path opacity="0.5" d="M116.381 396.884C116.279 396.839 116.196 396.757 116.149 396.655C116.103 396.553 116.095 396.438 116.128 396.33C116.13 396.314 116.13 396.297 116.128 396.28V396.28C116.131 396.231 116.118 396.182 116.091 396.142C116.064 396.101 116.024 396.07 115.978 396.053C115.932 396.036 115.882 396.034 115.835 396.047C115.788 396.061 115.746 396.089 115.716 396.128V396.128C115.706 396.142 115.698 396.158 115.691 396.174C115.646 396.276 115.565 396.359 115.462 396.405C115.36 396.452 115.245 396.46 115.138 396.426H115.087C115.038 396.424 114.99 396.437 114.949 396.464C114.908 396.491 114.877 396.531 114.86 396.577C114.843 396.623 114.841 396.673 114.855 396.72C114.868 396.767 114.896 396.809 114.935 396.839V396.839C114.949 396.849 114.965 396.857 114.981 396.864C115.083 396.909 115.166 396.99 115.213 397.092C115.259 397.195 115.267 397.31 115.234 397.417C115.232 397.434 115.232 397.451 115.234 397.468V397.468C115.231 397.517 115.244 397.565 115.271 397.606C115.299 397.647 115.338 397.678 115.384 397.695C115.43 397.712 115.48 397.714 115.527 397.7C115.574 397.687 115.616 397.658 115.646 397.62V397.62C115.656 397.605 115.664 397.59 115.671 397.574C115.716 397.471 115.798 397.389 115.9 397.342C116.002 397.296 116.117 397.288 116.224 397.321H116.275C116.324 397.324 116.372 397.31 116.413 397.283C116.454 397.256 116.485 397.217 116.502 397.171C116.519 397.125 116.521 397.075 116.507 397.028C116.494 396.981 116.466 396.939 116.427 396.909V396.909C116.413 396.899 116.397 396.891 116.381 396.884V396.884Z" fill="#4D8AF0"/>
<path opacity="0.5" d="M282.487 367.215C282.901 367.215 283.236 366.88 283.236 366.467C283.236 366.053 282.901 365.718 282.487 365.718C282.074 365.718 281.739 366.053 281.739 366.467C281.739 366.88 282.074 367.215 282.487 367.215Z" fill="#F55F44"/>
<path opacity="0.5" d="M107.043 424.695C107.457 424.695 107.792 424.36 107.792 423.947C107.792 423.534 107.457 423.199 107.043 423.199C106.63 423.199 106.295 423.534 106.295 423.947C106.295 424.36 106.63 424.695 107.043 424.695Z" fill="#4D8AF0"/>
<path opacity="0.5" d="M252.143 405.921C252.557 405.921 252.892 405.586 252.892 405.173C252.892 404.76 252.557 404.425 252.143 404.425C251.73 404.425 251.395 404.76 251.395 405.173C251.395 405.586 251.73 405.921 252.143 405.921Z" fill="#F55F44"/>
<g opacity="0.5">
<path opacity="0.5" d="M154.688 329.649C154.148 329.265 153.488 329.088 152.829 329.151C152.17 329.214 151.555 329.513 151.098 329.993C150.603 330.532 150.337 331.243 150.358 331.975C150.379 332.708 150.684 333.403 151.21 333.913L154.642 337.323C154.75 337.431 154.896 337.491 155.048 337.491C155.2 337.491 155.346 337.431 155.454 337.323L158.866 333.89C159.388 333.377 159.69 332.68 159.706 331.948C159.723 331.216 159.453 330.506 158.955 329.97C158.494 329.494 157.877 329.201 157.217 329.143C156.558 329.086 155.899 329.268 155.363 329.656C155.264 329.726 155.145 329.762 155.024 329.761C154.903 329.76 154.785 329.72 154.688 329.649V329.649Z" fill="#F55F44"/>
<path opacity="0.5" d="M155.07 337.182C155.03 337.255 155.009 337.338 155.009 337.422C155.009 337.506 155.03 337.588 155.07 337.662C155.119 337.733 155.163 337.808 155.204 337.884C155.292 338.104 155.138 338.344 154.981 338.524C154.882 338.638 154.771 338.792 154.837 338.928C154.868 338.979 154.907 339.023 154.953 339.06C155.057 339.161 155.134 339.288 155.175 339.427C155.216 339.567 155.221 339.714 155.188 339.856C155.156 339.998 155.087 340.129 154.989 340.236C154.892 340.344 154.768 340.425 154.63 340.47" stroke="#F55F44" stroke-width="0.252783" stroke-miterlimit="10"/>
</g>
<g opacity="0.5">
<path opacity="0.5" d="M266.165 350.124C265.626 349.74 264.966 349.563 264.306 349.627C263.647 349.69 263.032 349.988 262.576 350.468C262.08 351.007 261.815 351.719 261.835 352.451C261.856 353.183 262.162 353.878 262.687 354.389L266.12 357.799C266.227 357.906 266.373 357.967 266.525 357.967C266.677 357.967 266.823 357.906 266.931 357.799L270.344 354.366C270.866 353.852 271.167 353.156 271.183 352.423C271.2 351.691 270.93 350.982 270.432 350.445C269.971 349.97 269.354 349.676 268.694 349.619C268.035 349.561 267.376 349.743 266.84 350.132C266.741 350.201 266.622 350.238 266.501 350.237C266.38 350.235 266.263 350.196 266.165 350.124Z" fill="#F55F44"/>
<path opacity="0.5" d="M266.547 357.657C266.507 357.731 266.486 357.813 266.486 357.897C266.486 357.981 266.507 358.064 266.547 358.137C266.596 358.209 266.64 358.283 266.681 358.36C266.769 358.58 266.615 358.82 266.458 358.999C266.36 359.113 266.248 359.267 266.314 359.404C266.345 359.454 266.384 359.499 266.431 359.535C266.535 359.637 266.611 359.763 266.652 359.903C266.693 360.042 266.698 360.19 266.665 360.332C266.633 360.473 266.564 360.604 266.467 360.712C266.369 360.819 266.245 360.9 266.107 360.946" stroke="#F55F44" stroke-width="0.252783" stroke-miterlimit="10"/>
</g>
<g opacity="0.5">
<path opacity="0.5" d="M88.9643 467.668C88.4248 467.284 87.7648 467.108 87.1055 467.171C86.4461 467.234 85.8317 467.533 85.3748 468.012C84.8794 468.552 84.6138 469.263 84.6346 469.995C84.6554 470.727 84.9608 471.422 85.486 471.933L88.9188 475.343C89.0265 475.45 89.1724 475.511 89.3246 475.511C89.4767 475.511 89.6227 475.45 89.7303 475.343L93.1428 471.91C93.6649 471.397 93.9662 470.7 93.9827 469.968C93.9993 469.236 93.7297 468.526 93.2313 467.989C92.7704 467.514 92.1535 467.22 91.4938 467.163C90.834 467.105 90.1756 467.287 89.6393 467.676C89.5401 467.745 89.4217 467.782 89.3006 467.781C89.1795 467.779 89.0619 467.74 88.9643 467.668V467.668Z" fill="#F55F44"/>
<path opacity="0.5" d="M89.3459 475.201C89.3061 475.275 89.2852 475.358 89.2852 475.441C89.2852 475.525 89.3061 475.608 89.3459 475.682C89.3949 475.753 89.4396 475.827 89.4799 475.904C89.5684 476.124 89.4142 476.364 89.2574 476.544C89.1588 476.657 89.0476 476.811 89.1134 476.948C89.1442 476.998 89.1835 477.043 89.2296 477.079C89.3338 477.181 89.4102 477.307 89.4513 477.447C89.4924 477.586 89.4969 477.734 89.4644 477.876C89.4319 478.017 89.3635 478.148 89.2657 478.256C89.1679 478.364 89.044 478.444 88.9061 478.49" stroke="#F55F44" stroke-width="0.252783" stroke-miterlimit="10"/>
</g>
<g opacity="0.5">
<path opacity="0.5" d="M84.4141 337.991C83.8745 337.606 83.2145 337.43 82.5552 337.493C81.8959 337.556 81.2815 337.855 80.8246 338.334C80.3292 338.874 80.0636 339.585 80.0844 340.317C80.1052 341.049 80.4106 341.745 80.9358 342.255L84.3686 345.665C84.4762 345.773 84.6222 345.833 84.7743 345.833C84.9265 345.833 85.0724 345.773 85.18 345.665L88.5926 342.232C89.1147 341.719 89.416 341.022 89.4325 340.29C89.449 339.558 89.1795 338.848 88.6811 338.312C88.2202 337.836 87.6033 337.543 86.9435 337.485C86.2838 337.427 85.6253 337.61 85.089 337.998C84.9899 338.068 84.8714 338.104 84.7504 338.103C84.6293 338.102 84.5117 338.062 84.4141 337.991V337.991Z" fill="#F55F44"/>
<path opacity="0.5" d="M84.7959 345.524C84.756 345.597 84.7352 345.68 84.7352 345.764C84.7352 345.848 84.756 345.93 84.7959 346.004C84.8448 346.075 84.8896 346.15 84.9298 346.226C85.0183 346.446 84.8641 346.686 84.7074 346.866C84.6088 346.98 84.4976 347.134 84.5633 347.27C84.5941 347.321 84.6335 347.365 84.6796 347.402C84.7838 347.503 84.8601 347.63 84.9012 347.769C84.9424 347.909 84.9469 348.056 84.9144 348.198C84.8819 348.34 84.8134 348.471 84.7156 348.578C84.6178 348.686 84.494 348.766 84.356 348.812" stroke="#F55F44" stroke-width="0.252783" stroke-miterlimit="10"/>
</g>
<g opacity="0.5">
<path opacity="0.5" d="M173.141 440.368C172.602 439.984 171.942 439.807 171.282 439.87C170.623 439.933 170.008 440.232 169.552 440.712C169.056 441.251 168.791 441.962 168.811 442.694C168.832 443.427 169.138 444.122 169.663 444.632L173.096 448.042C173.203 448.15 173.349 448.21 173.501 448.21C173.653 448.21 173.799 448.15 173.907 448.042L177.32 444.609C177.842 444.096 178.143 443.399 178.159 442.667C178.176 441.935 177.906 441.225 177.408 440.689C176.947 440.213 176.33 439.92 175.671 439.862C175.011 439.805 174.352 439.987 173.816 440.375C173.717 440.445 173.598 440.481 173.477 440.48C173.356 440.479 173.239 440.439 173.141 440.368V440.368Z" fill="#F55F44"/>
<path opacity="0.5" d="M173.523 447.901C173.483 447.974 173.462 448.057 173.462 448.141C173.462 448.225 173.483 448.307 173.523 448.381C173.572 448.452 173.616 448.527 173.657 448.603C173.745 448.823 173.591 449.063 173.434 449.243C173.336 449.357 173.224 449.511 173.29 449.647C173.321 449.698 173.36 449.742 173.406 449.779C173.511 449.88 173.587 450.007 173.628 450.146C173.669 450.286 173.674 450.433 173.641 450.575C173.609 450.717 173.54 450.848 173.442 450.955C173.345 451.063 173.221 451.144 173.083 451.189" stroke="#F55F44" stroke-width="0.252783" stroke-miterlimit="10"/>
</g>
<g opacity="0.5">
<path opacity="0.5" d="M177.186 378.436C176.646 378.052 175.986 377.875 175.327 377.938C174.667 378.001 174.053 378.3 173.596 378.78C173.101 379.319 172.835 380.03 172.856 380.763C172.877 381.495 173.182 382.19 173.707 382.7L177.14 386.11C177.248 386.218 177.394 386.278 177.546 386.278C177.698 386.278 177.844 386.218 177.952 386.11L181.364 382.678C181.886 382.164 182.187 381.467 182.204 380.735C182.221 380.003 181.951 379.293 181.453 378.757C180.992 378.281 180.375 377.988 179.715 377.93C179.055 377.873 178.397 378.055 177.861 378.443C177.761 378.513 177.643 378.55 177.522 378.548C177.401 378.547 177.283 378.508 177.186 378.436V378.436Z" fill="#F55F44"/>
<path opacity="0.5" d="M177.567 385.969C177.527 386.043 177.507 386.125 177.507 386.209C177.507 386.293 177.527 386.375 177.567 386.449C177.616 386.521 177.661 386.595 177.701 386.672C177.79 386.891 177.636 387.132 177.479 387.311C177.38 387.425 177.269 387.579 177.335 387.716C177.366 387.766 177.405 387.81 177.451 387.847C177.555 387.948 177.632 388.075 177.673 388.214C177.714 388.354 177.718 388.502 177.686 388.643C177.653 388.785 177.585 388.916 177.487 389.023C177.389 389.131 177.265 389.212 177.127 389.258" stroke="#F55F44" stroke-width="0.252783" stroke-miterlimit="10"/>
</g>
<g opacity="0.5">
<path opacity="0.5" d="M111.462 372.875C110.922 372.491 110.262 372.314 109.603 372.377C108.944 372.44 108.329 372.739 107.872 373.218C107.377 373.758 107.111 374.469 107.132 375.201C107.153 375.933 107.458 376.629 107.984 377.139L111.416 380.549C111.524 380.657 111.67 380.717 111.822 380.717C111.974 380.717 112.12 380.657 112.228 380.549L115.64 377.116C116.162 376.603 116.464 375.906 116.48 375.174C116.497 374.442 116.227 373.732 115.729 373.196C115.268 372.72 114.651 372.427 113.991 372.369C113.332 372.311 112.673 372.494 112.137 372.882C112.038 372.952 111.919 372.988 111.798 372.987C111.677 372.986 111.559 372.946 111.462 372.875V372.875Z" fill="#F55F44"/>
<path opacity="0.5" d="M111.844 380.408C111.804 380.481 111.783 380.564 111.783 380.648C111.783 380.732 111.804 380.814 111.844 380.888C111.893 380.959 111.937 381.034 111.978 381.11C112.066 381.33 111.912 381.57 111.755 381.75C111.657 381.864 111.545 382.018 111.611 382.154C111.642 382.205 111.681 382.249 111.727 382.286C111.832 382.387 111.908 382.514 111.949 382.653C111.99 382.793 111.995 382.94 111.962 383.082C111.93 383.224 111.861 383.355 111.763 383.462C111.666 383.57 111.542 383.65 111.404 383.696" stroke="#F55F44" stroke-width="0.252783" stroke-miterlimit="10"/>
</g>
<g opacity="0.5">
<path opacity="0.5" d="M176.392 467.373H175.633V471.67H176.392V467.373Z" fill="#47E6B1"/>
<path opacity="0.5" d="M178.161 469.9V469.142H173.864V469.9H178.161Z" fill="#47E6B1"/>
</g>
<g opacity="0.5">
<path opacity="0.5" d="M277.758 448.414H277V452.711H277.758V448.414Z" fill="#47E6B1"/>
<path opacity="0.5" d="M279.527 450.942V450.183H275.23V450.942H279.527Z" fill="#47E6B1"/>
</g>
<g opacity="0.5">
<path opacity="0.5" d="M123.56 331.122H122.802V335.42H123.56V331.122Z" fill="#47E6B1"/>
<path opacity="0.5" d="M125.33 333.65V332.892H121.032V333.65H125.33Z" fill="#47E6B1"/>
</g>
<g opacity="0.5">
<path opacity="0.5" d="M258.041 377.129H257.282V381.426H258.041V377.129Z" fill="#47E6B1"/>
<path opacity="0.5" d="M259.81 379.657V378.898H255.513V379.657H259.81Z" fill="#47E6B1"/>
</g>
<g opacity="0.5">
<path opacity="0.5" d="M102.832 406.705H102.074V411.002H102.832V406.705Z" fill="#47E6B1"/>
<path opacity="0.5" d="M104.601 409.232V408.474H100.304V409.232H104.601Z" fill="#47E6B1"/>
</g>
<g opacity="0.5">
<path opacity="0.5" d="M101.062 483.298H100.304V487.595H101.062V483.298Z" fill="#47E6B1"/>
<path opacity="0.5" d="M102.832 485.826V485.067H98.5347V485.826H102.832Z" fill="#47E6B1"/>
</g>
<path opacity="0.5" d="M194.87 343.916C194.663 343.823 194.498 343.657 194.404 343.451C194.311 343.244 194.297 343.01 194.365 342.793C194.375 342.76 194.382 342.725 194.385 342.69V342.69C194.391 342.59 194.365 342.49 194.311 342.406C194.256 342.322 194.176 342.258 194.082 342.223C193.988 342.189 193.885 342.185 193.789 342.214C193.693 342.242 193.608 342.301 193.548 342.381C193.528 342.41 193.511 342.44 193.498 342.472C193.405 342.679 193.239 342.845 193.032 342.938C192.826 343.031 192.592 343.046 192.375 342.978C192.342 342.967 192.307 342.96 192.272 342.958C192.172 342.951 192.072 342.977 191.988 343.032C191.904 343.087 191.84 343.167 191.805 343.261C191.771 343.355 191.767 343.458 191.796 343.554C191.824 343.65 191.883 343.734 191.963 343.795V343.795C191.991 343.815 192.022 343.832 192.054 343.845C192.261 343.938 192.427 344.104 192.52 344.31C192.613 344.517 192.627 344.751 192.56 344.967C192.549 345.001 192.542 345.036 192.54 345.071C192.533 345.171 192.559 345.271 192.614 345.355C192.668 345.439 192.749 345.503 192.843 345.537C192.937 345.572 193.04 345.575 193.136 345.547C193.232 345.519 193.316 345.46 193.376 345.379V345.379C193.397 345.351 193.414 345.321 193.427 345.288C193.52 345.082 193.685 344.916 193.892 344.823C194.099 344.73 194.333 344.715 194.549 344.783C194.583 344.794 194.618 344.8 194.653 344.803V344.803C194.753 344.81 194.852 344.784 194.936 344.729C195.02 344.674 195.085 344.594 195.119 344.5C195.154 344.406 195.157 344.303 195.129 344.207C195.1 344.111 195.042 344.026 194.961 343.966V343.966C194.933 343.946 194.902 343.929 194.87 343.916V343.916Z" fill="#4D8AF0"/>
<path opacity="0.5" d="M271.211 403.32C271.004 403.227 270.838 403.061 270.745 402.855C270.652 402.648 270.638 402.414 270.705 402.198C270.716 402.164 270.723 402.129 270.725 402.094V402.094C270.732 401.994 270.706 401.894 270.651 401.81C270.596 401.726 270.516 401.662 270.422 401.628C270.328 401.593 270.225 401.59 270.129 401.618C270.033 401.646 269.949 401.705 269.889 401.785V401.785C269.868 401.814 269.851 401.844 269.838 401.876C269.745 402.083 269.58 402.249 269.373 402.342C269.166 402.435 268.932 402.45 268.716 402.382C268.682 402.371 268.647 402.364 268.612 402.362V402.362C268.512 402.355 268.413 402.381 268.329 402.436C268.245 402.491 268.18 402.571 268.146 402.665C268.111 402.759 268.108 402.862 268.136 402.958C268.165 403.054 268.223 403.139 268.304 403.199C268.332 403.219 268.363 403.236 268.395 403.249C268.602 403.342 268.767 403.508 268.86 403.714C268.954 403.921 268.968 404.155 268.9 404.371C268.889 404.405 268.883 404.44 268.88 404.475V404.475C268.874 404.575 268.9 404.675 268.954 404.759C269.009 404.843 269.089 404.907 269.183 404.941C269.277 404.976 269.38 404.979 269.476 404.951C269.572 404.923 269.657 404.864 269.717 404.783V404.783C269.737 404.755 269.754 404.725 269.767 404.692C269.86 404.486 270.026 404.32 270.233 404.227C270.439 404.134 270.673 404.119 270.89 404.187C270.923 404.198 270.958 404.205 270.993 404.207V404.207C271.093 404.214 271.193 404.188 271.277 404.133C271.361 404.078 271.425 403.998 271.46 403.904C271.494 403.81 271.498 403.707 271.469 403.611C271.441 403.515 271.382 403.43 271.302 403.37V403.37C271.273 403.35 271.243 403.333 271.211 403.32V403.32Z" fill="#4D8AF0"/>
<g opacity="0.5">
<path opacity="0.5" d="M83.3524 356.563H82.9783V358.683H83.3524V356.563Z" fill="#47E6B1"/>
<path opacity="0.5" d="M84.2244 357.811V357.437H82.1036V357.811H84.2244Z" fill="#47E6B1"/>
</g>
<g opacity="0.5">
<path opacity="0.5" d="M99.3183 389.369H98.9442V391.49H99.3183V389.369Z" fill="#47E6B1"/>
<path opacity="0.5" d="M100.193 390.615V390.241H98.0721V390.615H100.193Z" fill="#47E6B1"/>
</g>
<path opacity="0.5" d="M104.768 356.35C104.666 356.305 104.583 356.224 104.537 356.122C104.49 356.019 104.482 355.904 104.516 355.797C104.517 355.78 104.517 355.763 104.516 355.746V355.746C104.518 355.697 104.505 355.649 104.478 355.608C104.451 355.567 104.411 355.536 104.365 355.519C104.319 355.502 104.269 355.5 104.222 355.514C104.175 355.527 104.133 355.556 104.103 355.594C104.093 355.609 104.085 355.624 104.078 355.64C104.033 355.743 103.952 355.825 103.85 355.872C103.747 355.918 103.632 355.926 103.525 355.893H103.474C103.425 355.89 103.377 355.904 103.336 355.931C103.295 355.958 103.264 355.997 103.247 356.043C103.23 356.089 103.228 356.139 103.242 356.186C103.255 356.233 103.284 356.275 103.322 356.305V356.305C103.337 356.315 103.352 356.323 103.368 356.33C103.471 356.375 103.553 356.457 103.6 356.559C103.646 356.661 103.654 356.776 103.621 356.884C103.619 356.9 103.619 356.917 103.621 356.934V356.934C103.618 356.983 103.632 357.032 103.659 357.072C103.686 357.113 103.725 357.144 103.771 357.161C103.817 357.178 103.867 357.18 103.914 357.167C103.961 357.153 104.003 357.125 104.033 357.086V357.086C104.043 357.072 104.051 357.056 104.058 357.04C104.103 356.938 104.185 356.855 104.287 356.809C104.389 356.762 104.504 356.754 104.612 356.788H104.662C104.711 356.79 104.76 356.777 104.8 356.75C104.841 356.723 104.872 356.683 104.889 356.637C104.906 356.591 104.908 356.541 104.895 356.494C104.881 356.447 104.853 356.405 104.814 356.376C104.8 356.365 104.784 356.357 104.768 356.35V356.35Z" fill="#4D8AF0"/>
<path opacity="0.5" d="M85.4582 404.331C85.3555 404.286 85.273 404.204 85.2264 404.102C85.1798 404 85.1723 403.885 85.2054 403.777C85.2073 403.761 85.2073 403.744 85.2054 403.727V403.727C85.2078 403.678 85.1945 403.629 85.1675 403.589C85.1405 403.548 85.1011 403.517 85.0551 403.5C85.0091 403.483 84.9589 403.481 84.9118 403.494C84.8648 403.508 84.8233 403.536 84.7934 403.575V403.575C84.7832 403.589 84.7747 403.605 84.7681 403.621C84.7229 403.723 84.6415 403.806 84.5394 403.852C84.4373 403.899 84.3217 403.907 84.2145 403.873H84.1639C84.115 403.871 84.0666 403.884 84.0257 403.911C83.9848 403.938 83.9536 403.978 83.9367 404.024C83.9198 404.07 83.918 404.12 83.9316 404.167C83.9452 404.214 83.9734 404.256 84.0123 404.285V404.285C84.0264 404.296 84.0417 404.304 84.0578 404.311C84.1605 404.356 84.2429 404.437 84.2895 404.539C84.3362 404.642 84.3436 404.757 84.3106 404.864C84.3086 404.881 84.3086 404.898 84.3106 404.915V404.915C84.3081 404.964 84.3214 405.012 84.3484 405.053C84.3755 405.094 84.4149 405.125 84.4608 405.142C84.5068 405.159 84.557 405.161 84.6041 405.147C84.6512 405.134 84.6927 405.105 84.7226 405.067V405.067C84.7328 405.052 84.7413 405.037 84.7479 405.021C84.7931 404.918 84.8745 404.836 84.9765 404.789C85.0786 404.743 85.1942 404.735 85.3015 404.768H85.352C85.401 404.771 85.4494 404.757 85.4903 404.73C85.5311 404.703 85.5623 404.664 85.5792 404.618C85.5962 404.572 85.598 404.522 85.5844 404.475C85.5708 404.428 85.5425 404.386 85.5037 404.356V404.356C85.4896 404.346 85.4743 404.338 85.4582 404.331V404.331Z" fill="#4D8AF0"/>
<g opacity="0.5">
<path opacity="0.5" d="M86.6538 416.563H85.8954V420.861H86.6538V416.563Z" fill="#47E6B1"/>
<path opacity="0.5" d="M88.4233 419.091V418.333H84.126V419.091H88.4233Z" fill="#47E6B1"/>
</g>
<g opacity="0.5">
<path opacity="0.5" d="M171.589 349.323H170.831V353.62H171.589V349.323Z" fill="#47E6B1"/>
<path opacity="0.5" d="M173.358 351.851V351.092H169.061V351.851H173.358Z" fill="#47E6B1"/>
</g>
<path opacity="0.5" d="M80.1067 371.469C79.8998 371.376 79.7341 371.211 79.641 371.004C79.5478 370.797 79.5337 370.563 79.6012 370.347C79.612 370.313 79.6188 370.278 79.6214 370.243C79.6278 370.143 79.6018 370.044 79.5471 369.96C79.4925 369.876 79.4121 369.812 79.3181 369.777C79.224 369.742 79.1213 369.739 79.0252 369.767C78.929 369.796 78.8447 369.855 78.7847 369.935V369.935C78.7643 369.963 78.7474 369.994 78.7341 370.026C78.6412 370.233 78.4757 370.398 78.2689 370.492C78.0621 370.585 77.8283 370.599 77.6118 370.531C77.5781 370.521 77.5433 370.514 77.5081 370.511V370.511C77.4081 370.505 77.3086 370.531 77.2246 370.585C77.1406 370.64 77.0764 370.72 77.0418 370.814C77.0071 370.909 77.0037 371.011 77.0322 371.107C77.0607 371.203 77.1194 371.288 77.1997 371.348V371.348C77.228 371.368 77.2585 371.385 77.2907 371.398C77.4976 371.491 77.6633 371.657 77.7565 371.864C77.8496 372.07 77.8638 372.304 77.7963 372.521C77.7855 372.554 77.7787 372.589 77.7761 372.624V372.624C77.7696 372.724 77.7957 372.824 77.8503 372.908C77.905 372.992 77.9853 373.056 78.0794 373.091C78.1734 373.125 78.2762 373.129 78.3723 373.1C78.4684 373.072 78.5528 373.013 78.6128 372.933C78.6331 372.905 78.6501 372.874 78.6633 372.842C78.7563 372.635 78.9218 372.469 79.1286 372.376C79.3354 372.283 79.5692 372.269 79.7857 372.336C79.8193 372.347 79.8541 372.354 79.8893 372.356V372.356C79.9894 372.363 80.0888 372.337 80.1729 372.282C80.2569 372.228 80.321 372.147 80.3557 372.053C80.3904 371.959 80.3937 371.856 80.3652 371.76C80.3368 371.664 80.278 371.58 80.1977 371.52C80.1695 371.499 80.1389 371.482 80.1067 371.469V371.469Z" fill="#4D8AF0"/>
<path opacity="0.5" d="M239.866 502.158C239.659 502.065 239.493 501.9 239.4 501.693C239.307 501.486 239.293 501.252 239.36 501.036C239.371 501.002 239.378 500.967 239.38 500.932V500.932C239.387 500.832 239.361 500.733 239.306 500.649C239.251 500.564 239.171 500.5 239.077 500.466C238.983 500.431 238.88 500.428 238.784 500.456C238.688 500.485 238.604 500.543 238.544 500.624V500.624C238.523 500.652 238.506 500.682 238.493 500.715C238.4 500.922 238.235 501.087 238.028 501.18C237.821 501.274 237.587 501.288 237.371 501.22C237.337 501.209 237.302 501.203 237.267 501.2C237.167 501.194 237.068 501.22 236.983 501.274C236.899 501.329 236.835 501.409 236.801 501.503C236.766 501.597 236.763 501.7 236.791 501.796C236.82 501.892 236.878 501.977 236.959 502.037V502.037C236.987 502.057 237.017 502.074 237.05 502.087C237.257 502.18 237.422 502.346 237.515 502.553C237.609 502.759 237.623 502.993 237.555 503.21C237.544 503.243 237.538 503.278 237.535 503.313V503.313C237.529 503.413 237.555 503.513 237.609 503.597C237.664 503.681 237.744 503.745 237.838 503.78C237.932 503.814 238.035 503.818 238.131 503.789C238.227 503.761 238.312 503.702 238.372 503.622V503.622C238.392 503.593 238.409 503.563 238.422 503.531C238.515 503.324 238.681 503.158 238.887 503.065C239.094 502.972 239.328 502.958 239.545 503.025C239.578 503.036 239.613 503.043 239.648 503.045V503.045C239.748 503.052 239.848 503.026 239.932 502.971C240.016 502.916 240.08 502.836 240.115 502.742C240.149 502.648 240.153 502.545 240.124 502.449C240.096 502.353 240.037 502.269 239.957 502.209V502.209C239.928 502.188 239.898 502.171 239.866 502.158Z" fill="#4D8AF0"/>
<path opacity="0.5" d="M101.846 436.94C101.639 436.847 101.474 436.682 101.38 436.475C101.287 436.268 101.273 436.034 101.341 435.818C101.351 435.784 101.358 435.749 101.361 435.714V435.714C101.367 435.614 101.341 435.515 101.287 435.43C101.232 435.346 101.152 435.282 101.058 435.248C100.963 435.213 100.861 435.21 100.765 435.238C100.668 435.267 100.584 435.325 100.524 435.406V435.406C100.504 435.434 100.487 435.464 100.474 435.497C100.381 435.704 100.215 435.869 100.008 435.962C99.8015 436.056 99.5677 436.07 99.3512 436.002C99.3176 435.991 99.2828 435.985 99.2476 435.982V435.982C99.1475 435.976 99.0481 436.002 98.964 436.056C98.88 436.111 98.8159 436.191 98.7812 436.285C98.7465 436.379 98.7432 436.482 98.7716 436.578C98.8001 436.674 98.8589 436.759 98.9392 436.819V436.819C98.9674 436.839 98.998 436.856 99.0302 436.869C99.2371 436.962 99.4028 437.128 99.4959 437.334C99.5891 437.541 99.6032 437.775 99.5357 437.992C99.5249 438.025 99.5181 438.06 99.5155 438.095C99.5091 438.195 99.5351 438.295 99.5898 438.379C99.6444 438.463 99.7248 438.527 99.8188 438.562C99.9129 438.596 100.016 438.6 100.112 438.571C100.208 438.543 100.292 438.484 100.352 438.404V438.404C100.373 438.375 100.39 438.345 100.403 438.313C100.496 438.106 100.661 437.94 100.868 437.847C101.075 437.754 101.309 437.74 101.525 437.807C101.559 437.818 101.594 437.825 101.629 437.827V437.827C101.729 437.834 101.828 437.808 101.912 437.753C101.996 437.698 102.06 437.618 102.095 437.524C102.13 437.43 102.133 437.327 102.105 437.231C102.076 437.135 102.017 437.051 101.937 436.991C101.909 436.97 101.878 436.953 101.846 436.94Z" fill="#4D8AF0"/>
<g opacity="0.5">
<path opacity="0.5" d="M272.171 508.174H271.797V510.295H272.171V508.174Z" fill="#47E6B1"/>
<path opacity="0.5" d="M273.044 509.42V509.046H270.923V509.42H273.044Z" fill="#47E6B1"/>
</g>
<path opacity="0.5" d="M275.144 481.824C275.557 481.824 275.892 481.489 275.892 481.076C275.892 480.663 275.557 480.328 275.144 480.328C274.731 480.328 274.396 480.663 274.396 481.076C274.396 481.489 274.731 481.824 275.144 481.824Z" fill="#4D8AF0"/>
<g opacity="0.5">
<path opacity="0.5" d="M270.933 463.834H270.174V468.131H270.933V463.834Z" fill="#47E6B1"/>
<path opacity="0.5" d="M272.702 466.361V465.603H268.405V466.361H272.702Z" fill="#47E6B1"/>
</g>
<path opacity="0.5" d="M253.559 461.46C253.456 461.415 253.374 461.333 253.327 461.231C253.28 461.129 253.273 461.014 253.306 460.906C253.308 460.89 253.308 460.873 253.306 460.856C253.308 460.807 253.295 460.758 253.268 460.718C253.241 460.677 253.202 460.646 253.156 460.629C253.11 460.612 253.06 460.61 253.012 460.623C252.965 460.637 252.924 460.665 252.894 460.704V460.704C252.884 460.718 252.875 460.734 252.869 460.75C252.824 460.852 252.742 460.935 252.64 460.981C252.538 461.028 252.422 461.036 252.315 461.002H252.265C252.216 461 252.167 461.013 252.126 461.04C252.085 461.067 252.054 461.107 252.037 461.153C252.02 461.199 252.019 461.249 252.032 461.296C252.046 461.343 252.074 461.385 252.113 461.414V461.414C252.127 461.425 252.142 461.433 252.158 461.44C252.261 461.485 252.344 461.566 252.39 461.668C252.437 461.77 252.444 461.886 252.411 461.993C252.409 462.01 252.409 462.027 252.411 462.044C252.409 462.093 252.422 462.141 252.449 462.182C252.476 462.223 252.515 462.254 252.561 462.271C252.607 462.288 252.658 462.29 252.705 462.276C252.752 462.263 252.793 462.234 252.823 462.196V462.196C252.833 462.181 252.842 462.166 252.849 462.15C252.894 462.047 252.975 461.965 253.077 461.918C253.179 461.872 253.295 461.864 253.402 461.897H253.453C253.502 461.9 253.55 461.886 253.591 461.859C253.632 461.832 253.663 461.793 253.68 461.747C253.697 461.701 253.699 461.651 253.685 461.604C253.671 461.557 253.643 461.515 253.604 461.485V461.485C253.59 461.475 253.575 461.467 253.559 461.46V461.46Z" fill="#4D8AF0"/>
<g opacity="0.5">
<path opacity="0.5" d="M254.755 473.692H253.996V477.989H254.755V473.692Z" fill="#47E6B1"/>
<path opacity="0.5" d="M256.524 476.22V475.462H252.227V476.22H256.524Z" fill="#47E6B1"/>
</g>
<path opacity="0.5" d="M269.947 494.069C269.74 493.976 269.574 493.811 269.481 493.604C269.388 493.397 269.374 493.163 269.441 492.947C269.452 492.913 269.459 492.878 269.461 492.843V492.843C269.468 492.743 269.442 492.644 269.387 492.559C269.333 492.475 269.252 492.411 269.158 492.377C269.064 492.342 268.961 492.339 268.865 492.367C268.769 492.396 268.685 492.454 268.625 492.535V492.535C268.604 492.563 268.587 492.593 268.574 492.626C268.481 492.832 268.316 492.998 268.109 493.091C267.902 493.184 267.668 493.199 267.452 493.131C267.418 493.12 267.383 493.114 267.348 493.111V493.111C267.248 493.104 267.149 493.131 267.065 493.185C266.981 493.24 266.917 493.32 266.882 493.414C266.847 493.508 266.844 493.611 266.872 493.707C266.901 493.803 266.96 493.888 267.04 493.948V493.948C267.068 493.968 267.099 493.985 267.131 493.998C267.338 494.091 267.503 494.257 267.597 494.463C267.69 494.67 267.704 494.904 267.636 495.121C267.626 495.154 267.619 495.189 267.616 495.224V495.224C267.61 495.324 267.636 495.424 267.69 495.508C267.745 495.592 267.825 495.656 267.919 495.691C268.014 495.725 268.116 495.729 268.212 495.7C268.309 495.672 268.393 495.613 268.453 495.533V495.533C268.473 495.504 268.49 495.474 268.503 495.442C268.596 495.235 268.762 495.069 268.969 494.976C269.175 494.883 269.409 494.869 269.626 494.936C269.659 494.947 269.694 494.954 269.729 494.956V494.956C269.829 494.963 269.929 494.937 270.013 494.882C270.097 494.827 270.161 494.747 270.196 494.653C270.23 494.559 270.234 494.456 270.205 494.36C270.177 494.264 270.118 494.18 270.038 494.12V494.12C270.01 494.099 269.979 494.082 269.947 494.069V494.069Z" fill="#4D8AF0"/>
<path opacity="0.5" d="M183.748 502.664C183.541 502.571 183.375 502.405 183.282 502.198C183.189 501.992 183.175 501.758 183.242 501.541C183.253 501.508 183.26 501.473 183.262 501.438V501.438C183.269 501.338 183.243 501.238 183.188 501.154C183.134 501.07 183.053 501.006 182.959 500.971C182.865 500.937 182.762 500.933 182.666 500.962C182.57 500.99 182.486 501.049 182.426 501.129V501.129C182.405 501.157 182.388 501.188 182.375 501.22C182.282 501.427 182.117 501.593 181.91 501.686C181.703 501.779 181.469 501.793 181.253 501.726C181.219 501.715 181.184 501.708 181.149 501.706V501.706C181.049 501.699 180.95 501.725 180.866 501.78C180.782 501.834 180.718 501.915 180.683 502.009C180.648 502.103 180.645 502.206 180.673 502.302C180.702 502.398 180.761 502.482 180.841 502.542V502.542C180.869 502.563 180.9 502.58 180.932 502.593C181.139 502.686 181.304 502.851 181.398 503.058C181.491 503.265 181.505 503.499 181.437 503.715C181.427 503.749 181.42 503.784 181.417 503.819V503.819C181.411 503.919 181.437 504.018 181.491 504.102C181.546 504.186 181.626 504.251 181.72 504.285C181.815 504.32 181.917 504.323 182.013 504.295C182.11 504.266 182.194 504.208 182.254 504.127V504.127C182.274 504.099 182.291 504.068 182.304 504.036C182.397 503.829 182.563 503.664 182.77 503.57C182.976 503.477 183.21 503.463 183.427 503.531C183.46 503.541 183.495 503.548 183.53 503.551V503.551C183.63 503.557 183.73 503.531 183.814 503.477C183.898 503.422 183.962 503.342 183.997 503.248C184.031 503.154 184.035 503.051 184.006 502.955C183.978 502.859 183.919 502.774 183.839 502.714C183.811 502.694 183.78 502.677 183.748 502.664Z" fill="#4D8AF0"/>
<g opacity="0.5">
<path opacity="0.1" d="M200.502 366.99C200.784 366.989 201.063 366.924 201.316 366.8C201.44 366.827 201.566 366.84 201.693 366.841C202.651 366.841 203.493 366.082 203.968 364.952C204.274 366.052 204.954 366.851 205.846 367C206.124 367.046 206.41 367.029 206.68 366.949C206.798 366.997 206.921 367.031 207.047 367.053C208.508 367.306 209.989 365.723 210.361 363.534C210.732 361.345 209.855 359.368 208.387 359.123C208.108 359.077 207.823 359.095 207.552 359.174C207.434 359.127 207.311 359.092 207.186 359.07C206.008 358.87 204.815 359.859 204.206 361.396C203.821 359.879 202.843 358.797 201.698 358.797C201.416 358.798 201.138 358.863 200.884 358.987C200.76 358.96 200.634 358.947 200.507 358.946C199.026 358.946 197.825 360.746 197.825 362.968C197.825 365.19 199.021 366.99 200.502 366.99Z" fill="url(#paint1_linear)"/>
<path opacity="0.1" d="M208.36 370.214C209.109 369.186 209.299 368.049 208.784 367.674C208.27 367.3 207.246 367.829 206.497 368.857C205.748 369.885 205.558 371.022 206.073 371.397C206.587 371.771 207.611 371.242 208.36 370.214Z" fill="url(#paint2_linear)"/>
<path opacity="0.1" d="M214.979 362.983C214.719 362.874 214.437 362.825 214.155 362.839C214.051 362.766 213.94 362.704 213.824 362.655C212.461 362.076 210.651 363.264 209.779 365.306C208.907 367.349 209.312 369.477 210.674 370.056C210.934 370.165 211.216 370.215 211.498 370.2C211.602 370.273 211.713 370.335 211.829 370.385C213.192 370.964 215.002 369.776 215.874 367.733C216.746 365.691 216.342 363.562 214.979 362.983Z" fill="url(#paint3_linear)"/>
<path opacity="0.1" d="M212.089 374.136C213.055 373.313 213.505 372.254 213.093 371.77C212.681 371.287 211.564 371.562 210.598 372.384C209.632 373.207 209.182 374.266 209.594 374.75C210.006 375.233 211.123 374.958 212.089 374.136Z" fill="url(#paint4_linear)"/>
<path opacity="0.1" d="M193.96 367.051C194.086 367.029 194.208 366.994 194.327 366.947C194.597 367.026 194.883 367.043 195.161 366.997C196.622 366.745 197.504 364.775 197.135 362.586C196.766 360.397 195.285 358.81 193.821 359.063C193.707 359.082 193.596 359.113 193.487 359.154H193.447C193.179 359.075 192.896 359.058 192.62 359.103C191.159 359.356 190.277 361.325 190.646 363.514C191.015 365.703 192.504 367.298 193.96 367.051Z" fill="url(#paint5_linear)"/>
<path opacity="0.1" d="M194.698 369.275C193.94 368.251 192.423 368.097 192.423 368.097C192.423 368.097 192.102 369.614 192.85 370.625C193.599 371.636 194.62 372.177 195.126 371.803C195.631 371.429 195.447 370.301 194.698 369.275Z" fill="url(#paint6_linear)"/>
<path opacity="0.1" d="M210.631 375.478C210.118 375.496 209.605 375.427 209.114 375.274C209.276 374.785 209.339 374.27 209.299 373.757C209.221 372.493 208.01 371.535 208.01 371.535C207.655 371.916 207.373 372.36 207.181 372.844C206.996 372.808 206.808 372.791 206.619 372.794C206.227 372.796 205.836 372.82 205.447 372.867C205.611 372.225 205.583 371.549 205.366 370.923C205.04 369.856 203.922 369.227 203.654 369.09C203.659 368.586 203.573 368.086 203.401 367.612C203.401 367.612 201.913 368.019 201.346 369.154C200.78 370.289 200.778 371.429 201.346 371.722C201.814 371.957 202.522 371.527 203.075 370.734C203.055 371.024 203.086 371.316 203.169 371.596C203.325 372.149 203.608 372.658 203.996 373.082C202.96 373.297 201.904 373.398 200.846 373.383C201.235 372.966 201.177 371.949 200.674 370.943C200.105 369.808 198.619 369.401 198.619 369.401C198.619 369.401 198.05 370.835 198.619 371.97C198.837 372.421 199.14 372.826 199.511 373.163C199.186 373.07 198.871 372.947 198.568 372.796C198.23 372.63 197.875 372.501 197.509 372.412C197.649 372.153 197.763 371.88 197.848 371.598C198.219 370.385 197.421 369.07 197.421 369.07C197.421 369.07 196.02 369.717 195.651 370.933C195.523 371.342 195.46 371.769 195.464 372.197C194.244 372.232 193.034 372.432 191.867 372.791C201.248 390.226 195.884 402.288 195.884 402.288H203.927C198.571 387.544 214.653 375.478 210.631 375.478Z" fill="url(#paint7_linear)"/>
</g>
<path d="M201.147 390.754V365.812" stroke="#3AD29F" stroke-width="0.758349" stroke-miterlimit="10"/>
<path d="M201.731 359.247C201.455 359.248 201.183 359.311 200.934 359.432C200.813 359.405 200.689 359.392 200.565 359.391C199.114 359.391 197.939 361.161 197.939 363.33C197.939 365.498 199.114 367.268 200.565 367.268C200.841 367.267 201.113 367.204 201.362 367.083C201.483 367.11 201.607 367.123 201.731 367.124C203.182 367.124 204.357 365.354 204.357 363.185C204.357 361.017 203.182 359.247 201.731 359.247Z" fill="#F55F44"/>
<path d="M203.405 370.411C203.961 369.299 203.961 368.173 203.406 367.895C202.85 367.617 201.949 368.293 201.393 369.404C200.838 370.516 200.837 371.642 201.393 371.92C201.949 372.198 202.85 371.522 203.405 370.411Z" fill="#3AD29F"/>
<path d="M200.73 373.642C201.285 373.365 201.285 372.238 200.729 371.127C200.174 370.016 199.273 369.34 198.717 369.618C198.161 369.896 198.161 371.022 198.717 372.133C199.273 373.245 200.174 373.92 200.73 373.642Z" fill="#3AD29F"/>
<path d="M202.466 390.534L206.615 365.941" stroke="#3AD29F" stroke-width="0.758349" stroke-miterlimit="10"/>
<path d="M208.28 359.568C208.008 359.523 207.729 359.541 207.464 359.619C207.348 359.573 207.228 359.539 207.105 359.518C205.674 359.265 204.223 360.819 203.862 362.963C203.5 365.107 204.367 367.043 205.796 367.283C206.068 367.328 206.347 367.311 206.612 367.233C206.728 367.279 206.848 367.313 206.971 367.334C208.402 367.586 209.853 366.032 210.214 363.888C210.576 361.745 209.711 359.806 208.28 359.568Z" fill="#F55F44"/>
<path d="M208.065 370.835C208.798 369.832 208.985 368.721 208.483 368.355C207.982 367.989 206.981 368.505 206.248 369.508C205.515 370.512 205.328 371.622 205.83 371.989C206.331 372.355 207.332 371.839 208.065 370.835Z" fill="#3AD29F"/>
<path d="M204.899 373.609C205.493 373.427 205.68 372.317 205.317 371.128C204.954 369.94 204.178 369.124 203.584 369.306C202.99 369.487 202.803 370.598 203.166 371.786C203.529 372.974 204.305 373.79 204.899 373.609Z" fill="#3AD29F"/>
<path d="M201.88 392.117L211.635 369.161" stroke="#3AD29F" stroke-width="0.758349" stroke-miterlimit="10"/>
<path d="M214.749 363.36C214.494 363.253 214.219 363.204 213.943 363.218C213.842 363.147 213.733 363.086 213.619 363.036C212.272 362.457 210.502 363.613 209.65 365.635C208.799 367.657 209.193 369.72 210.528 370.286C210.782 370.393 211.058 370.442 211.334 370.428C211.435 370.499 211.544 370.56 211.658 370.61C212.992 371.176 214.764 370.013 215.614 368.011C216.463 366.009 216.074 363.913 214.749 363.36Z" fill="#F55F44"/>
<path d="M211.91 374.268C212.856 373.462 213.296 372.426 212.893 371.953C212.491 371.48 211.397 371.749 210.451 372.555C209.505 373.36 209.065 374.397 209.467 374.87C209.87 375.343 210.964 375.073 211.91 374.268Z" fill="#3AD29F"/>
<path d="M208.179 376.228C208.8 376.189 209.24 375.153 209.163 373.913C209.087 372.673 208.522 371.698 207.902 371.737C207.282 371.775 206.841 372.812 206.918 374.052C206.995 375.292 207.559 376.266 208.179 376.228Z" fill="#3AD29F"/>
<path d="M198.664 390.534L194.514 365.941" stroke="#3AD29F" stroke-width="0.758349" stroke-miterlimit="10"/>
<path d="M192.846 359.568C193.118 359.523 193.397 359.541 193.662 359.619C193.778 359.573 193.898 359.539 194.021 359.518C195.452 359.265 196.903 360.819 197.264 362.963C197.626 365.107 196.759 367.043 195.33 367.283C195.058 367.328 194.779 367.311 194.514 367.233C194.398 367.279 194.278 367.313 194.155 367.334C192.724 367.586 191.273 366.032 190.912 363.888C190.55 361.745 191.417 359.806 192.846 359.568Z" fill="#F55F44"/>
<path d="M195.298 371.991C195.8 371.625 195.613 370.514 194.88 369.511C194.147 368.507 193.146 367.991 192.645 368.357C192.143 368.724 192.33 369.834 193.063 370.837C193.796 371.841 194.796 372.357 195.298 371.991Z" fill="#3AD29F"/>
<path d="M197.83 371.03C198.191 369.837 197.999 368.724 197.403 368.544C196.806 368.364 196.031 369.185 195.67 370.378C195.31 371.57 195.501 372.683 196.098 372.864C196.694 373.044 197.47 372.223 197.83 371.03Z" fill="#3AD29F"/>
<path d="M192.105 372.966C192.105 372.966 196.043 371.654 198.677 372.966C201.311 374.278 203.927 372.966 206.554 372.966C209.18 372.966 206.554 375.592 210.492 375.592C214.431 375.592 198.677 387.407 203.92 401.846H196.043C196.043 401.846 201.293 390.023 192.105 372.966Z" fill="#F5F5F5"/>
<path opacity="0.1" d="M193.308 359.702L193.761 361.057L194.011 359.525L193.308 359.702Z" fill="black"/>
<path opacity="0.1" d="M200.54 359.652L200.993 361.006L201.243 359.475L200.54 359.652Z" fill="black"/>
<path opacity="0.1" d="M207.191 359.829L207.429 361.239L207.911 359.763L207.191 359.829Z" fill="black"/>
<path opacity="0.1" d="M213.612 363.251L213.488 364.674L214.327 363.37L213.612 363.251Z" fill="black"/>
<path opacity="0.1" d="M196.698 372.584C196.698 372.584 199.185 383.433 199.185 387.498C199.185 391.563 198.508 401.737 198.508 401.737H199.413C199.413 401.737 198.505 374.391 198.065 372.809L196.698 372.584Z" fill="black"/>
<path opacity="0.1" d="M202.348 373.486C202.348 373.486 200.088 383.431 200.088 387.501C200.088 391.571 200.765 401.74 200.765 401.74H199.86C199.86 401.74 200.538 375.296 200.99 373.714L202.348 373.486Z" fill="black"/>
<path opacity="0.1" d="M204.385 373.261C204.385 373.261 201.898 383.431 201.898 387.501C201.898 391.57 202.575 401.74 202.575 401.74H201.67C201.67 401.74 202.575 375.071 203.025 373.489L204.385 373.261Z" fill="black"/>
<g opacity="0.5">
<path opacity="0.5" d="M204.815 386.77C203.662 383.312 196.809 387.986 196.809 387.986L196.245 388.744L184.061 405.216L154.215 388.532V381.067C155.621 380.912 156.979 380.47 158.208 379.77C159.436 379.069 160.508 378.125 161.358 376.995C162.208 375.865 162.818 374.573 163.149 373.198C163.481 371.823 163.528 370.395 163.288 369.002C164.789 368.423 166.013 367.174 167.14 365.969C168.179 364.864 169.291 363.524 169.185 362.053C169.202 361.818 169.188 361.582 169.145 361.35C168.907 360.109 167.785 359.204 166.596 358.772C165.408 358.34 164.124 358.266 162.883 358.014C159.926 357.435 157.254 355.89 154.369 355.016C153.059 354.621 151.711 354.367 150.348 354.257C149.369 354.176 148.351 354.176 147.456 354.578C146.475 355.021 145.765 355.885 144.976 356.621C144.023 357.508 142.923 358.224 141.725 358.736C139.938 359.495 137.933 359.806 136.323 360.878C135.876 361.147 135.502 361.522 135.234 361.97C134.998 362.451 134.898 362.988 134.943 363.522C134.936 363.992 134.971 364.463 135.049 364.927C135.332 366.909 135.658 368.939 136.662 370.67C137.481 372.086 138.707 373.213 139.91 374.321L142.617 376.803C143.166 377.308 143.773 377.93 144.48 378.181C144.435 377.852 144.622 377.506 144.9 377.169L144.023 383.302C142.39 382.794 140.692 382.524 138.982 382.501C136.677 382.473 134.344 382.89 133.335 384.46C133.276 384.555 133.225 384.655 133.181 384.758C130.004 388.53 122.721 400.744 127.003 430.411C126.637 434.041 126.417 436.338 126.417 436.338L126.442 436.702L126.417 436.978L126.467 437.018L128.851 469.782L124.253 502.057H125.264V505.644H124.111V511.407C124.111 511.407 140.122 510.384 142.564 506.797C144.587 503.821 134.521 504.989 131.035 505.475V503.275H131.098V502.059H132.314L136.922 480.146C141.662 471.948 139.228 451.452 139.228 451.452L144.981 454.918L149.592 479.001L146.146 514.739H147.17V517.237H145.825V523C145.825 523 161.837 521.976 164.278 518.389C166.301 515.414 156.24 516.582 152.754 517.067L152.367 514.739H153.07L157.681 482.459C159.956 473.712 156.854 448.05 156.445 444.764L162.165 407.01L162.084 406.902L162.165 406.368L185.222 414.44C185.222 414.44 187.527 416.745 189.898 409.89C192.112 403.484 198.187 394.897 198.973 393.803L199.056 393.686C199.056 393.686 205.967 390.228 204.815 386.77Z" fill="url(#paint8_linear)"/>
</g>
<path d="M126.295 499.274V504.886H131.907V497.027L126.295 499.274Z" fill="#FDA57D"/>
<path d="M147.625 510.5V517.234L153.239 516.112L152.117 509.378L147.625 510.5Z" fill="#FDA57D"/>
<path d="M135.337 384.821C135.337 384.821 121.94 394.862 128.54 434.157L135.337 384.821Z" fill="#F55F44"/>
<path d="M135.337 384.821C135.337 384.821 121.94 394.862 128.54 434.157L135.337 384.821Z" fill="#3AD29F"/>
<path opacity="0.05" d="M152.739 513.93L152.178 510.561L147.688 511.683V513.93H152.739Z" fill="black"/>
<path opacity="0.05" d="M126.356 501.579H131.97V498.212L126.356 500.457V501.579Z" fill="black"/>
<path d="M145.504 378.148L144.382 386.007L154.486 391.621V380.392L145.504 378.148Z" fill="#FDA57D"/>
<path d="M125.297 500.394L129.789 468.957L127.418 436.414L156.609 444.25C156.609 444.25 160.226 472.193 157.855 481.298L153.363 512.755H146.627L149.994 477.952L145.502 454.501L139.887 451.134C139.887 451.134 142.259 471.104 137.643 479.076L133.156 500.394H125.297Z" fill="#CA00AB"/>
<path d="M203.758 388.133C202.636 384.766 195.962 389.318 195.962 389.318L195.414 390.061L198.065 394.978L198.149 394.864C198.149 394.864 204.891 391.495 203.758 388.133Z" fill="#FDA57D"/>
<path opacity="0.05" d="M145.38 385.382C145.38 385.382 136.399 383.011 134.154 386.505C131.91 389.998 127.418 437.026 127.418 437.026C127.418 437.026 140.765 448.252 156.606 444.885L162.221 407.837L145.38 385.382Z" fill="black"/>
<path d="M183.551 406.08L148.067 386.262C145.496 384.815 142.603 384.033 139.652 383.987C137.408 383.959 135.135 384.366 134.154 385.893C131.907 389.374 127.418 436.414 127.418 436.414C127.418 436.414 140.765 447.628 156.609 444.251L162.221 407.213L184.668 415.072C184.668 415.072 186.913 417.316 189.218 410.643C191.374 404.404 197.289 396.045 198.065 394.97L195.411 390.056L183.551 406.08Z" fill="#3AD29F"/>
<path opacity="0.05" d="M145.353 379.892C146.297 381.098 147.503 382.073 148.88 382.743C150.257 383.413 151.769 383.761 153.3 383.76C153.675 383.759 154.05 383.738 154.422 383.696V381.515L145.441 379.27L145.353 379.892Z" fill="black"/>
<path d="M153.363 382.64C158.943 382.64 163.467 378.116 163.467 372.536C163.467 366.956 158.943 362.432 153.363 362.432C147.783 362.432 143.259 366.956 143.259 372.536C143.259 378.116 147.783 382.64 153.363 382.64Z" fill="#FDA57D"/>
<path d="M125.17 503.887V509.501C125.17 509.501 140.762 508.503 143.133 505.009C145.504 501.516 130.785 503.887 130.785 503.887H125.17Z" fill="#333333"/>
<path d="M146.316 515.176V520.791C146.316 520.791 161.917 519.792 164.278 516.294C166.639 512.795 151.93 515.171 151.93 515.171L146.316 515.176Z" fill="#333333"/>
<path opacity="0.05" d="M146.955 377.164L150.904 371.515C151.488 370.678 152.087 369.826 152.906 369.214C153.725 368.603 154.812 368.261 155.782 368.575C156.369 368.764 156.857 369.169 157.355 369.53C158.828 370.602 160.641 371.398 162.443 371.075C164.321 370.736 165.765 369.27 167.072 367.88C168.156 366.727 169.321 365.311 169.023 363.757C168.791 362.548 167.699 361.669 166.541 361.247C165.383 360.825 164.134 360.756 162.926 360.519C160.047 359.955 157.443 358.451 154.635 357.599C153.359 357.208 152.046 356.954 150.717 356.841C149.764 356.762 148.77 356.762 147.901 357.154C146.945 357.584 146.252 358.418 145.487 359.144C144.558 360.008 143.488 360.705 142.322 361.204C140.583 361.947 138.639 362.245 137.061 363.289C136.626 363.552 136.263 363.917 136.002 364.353C135.598 365.112 135.701 366.017 135.823 366.861C136.098 368.79 136.414 370.766 137.392 372.453C138.191 373.83 139.382 374.93 140.557 376.007L143.194 378.426C143.727 378.916 144.319 379.523 145.009 379.768C144.885 378.901 146.457 377.877 146.955 377.164Z" fill="black"/>
<path d="M146.955 376.79L150.904 371.141C151.488 370.304 152.087 369.452 152.906 368.84C153.725 368.228 154.812 367.887 155.782 368.201C156.369 368.39 156.857 368.795 157.355 369.156C158.828 370.228 160.641 371.024 162.443 370.701C164.321 370.362 165.765 368.896 167.072 367.506C168.156 366.353 169.321 364.937 169.023 363.383C168.791 362.174 167.699 361.295 166.541 360.873C165.383 360.45 164.134 360.382 162.926 360.144C160.047 359.581 157.443 358.077 154.635 357.225C153.359 356.834 152.046 356.58 150.717 356.466C149.764 356.388 148.77 356.388 147.901 356.78C146.945 357.21 146.252 358.044 145.487 358.769C144.559 359.634 143.488 360.332 142.322 360.832C140.583 361.575 138.639 361.874 137.061 362.918C136.626 363.18 136.263 363.546 136.002 363.982C135.598 364.74 135.701 365.645 135.823 366.489C136.098 368.418 136.414 370.395 137.392 372.081C138.191 373.459 139.382 374.558 140.557 375.635L143.194 378.054C143.727 378.545 144.319 379.151 145.009 379.396C144.885 378.527 146.457 377.503 146.955 376.79Z" fill="#333333"/>
</g>
<rect y="372" width="360" height="270" fill="url(#paint9_linear)"/>
</g>
<defs>
<linearGradient id="paint0_linear" x1="224.186" y1="488.381" x2="224.186" y2="320" gradientUnits="userSpaceOnUse">
<stop stop-color="#808080" stop-opacity="0.25"/>
<stop offset="0.54" stop-color="#808080" stop-opacity="0.12"/>
<stop offset="1" stop-color="#808080" stop-opacity="0.1"/>
</linearGradient>
<linearGradient id="paint1_linear" x1="8969.25" y1="2302.68" x2="8969.25" y2="2031.43" gradientUnits="userSpaceOnUse">
<stop stop-color="#808080" stop-opacity="0.25"/>
<stop offset="0.54" stop-color="#808080" stop-opacity="0.12"/>
<stop offset="1" stop-color="#808080" stop-opacity="0.1"/>
</linearGradient>
<linearGradient id="paint2_linear" x1="3461.06" y1="949.655" x2="3461.01" y2="914.709" gradientUnits="userSpaceOnUse">
<stop stop-color="#808080" stop-opacity="0.25"/>
<stop offset="0.54" stop-color="#808080" stop-opacity="0.12"/>
<stop offset="1" stop-color="#808080" stop-opacity="0.1"/>
</linearGradient>
<linearGradient id="paint3_linear" x1="5326.39" y1="2355.22" x2="5326.39" y2="2100.48" gradientUnits="userSpaceOnUse">
<stop stop-color="#808080" stop-opacity="0.25"/>
<stop offset="0.54" stop-color="#808080" stop-opacity="0.12"/>
<stop offset="1" stop-color="#808080" stop-opacity="0.1"/>
</linearGradient>
<linearGradient id="paint4_linear" x1="3532.67" y1="983.919" x2="3532.67" y2="954.429" gradientUnits="userSpaceOnUse">
<stop stop-color="#808080" stop-opacity="0.25"/>
<stop offset="0.54" stop-color="#808080" stop-opacity="0.12"/>
<stop offset="1" stop-color="#808080" stop-opacity="0.1"/>
</linearGradient>
<linearGradient id="paint5_linear" x1="4547.31" y1="2245.97" x2="4547.31" y2="1990.47" gradientUnits="userSpaceOnUse">
<stop stop-color="#808080" stop-opacity="0.25"/>
<stop offset="0.54" stop-color="#808080" stop-opacity="0.12"/>
<stop offset="1" stop-color="#808080" stop-opacity="0.1"/>
</linearGradient>
<linearGradient id="paint6_linear" x1="2191.7" y1="1339.17" x2="2191.7" y2="1281.19" gradientUnits="userSpaceOnUse">
<stop stop-color="#808080" stop-opacity="0.25"/>
<stop offset="0.54" stop-color="#808080" stop-opacity="0.12"/>
<stop offset="1" stop-color="#808080" stop-opacity="0.1"/>
</linearGradient>
<linearGradient id="paint7_linear" x1="13490.4" y1="13337.1" x2="13490.4" y2="8580.11" gradientUnits="userSpaceOnUse">
<stop stop-color="#808080" stop-opacity="0.25"/>
<stop offset="0.54" stop-color="#808080" stop-opacity="0.12"/>
<stop offset="1" stop-color="#808080" stop-opacity="0.1"/>
</linearGradient>
<linearGradient id="paint8_linear" x1="30715.4" y1="87734.3" x2="56562.7" y2="87734.3" gradientUnits="userSpaceOnUse">
<stop stop-color="#808080" stop-opacity="0.25"/>
<stop offset="0.54" stop-color="#808080" stop-opacity="0.12"/>
<stop offset="1" stop-color="#808080" stop-opacity="0.1"/>
</linearGradient>
<linearGradient id="paint9_linear" x1="180" y1="811" x2="180" y2="405.5" gradientUnits="userSpaceOnUse">
<stop stop-color="#3D7FFF"/>
<stop offset="1" stop-color="white" stop-opacity="0"/>
</linearGradient>
<clipPath id="clip0">
<rect width="360" height="640" fill="white"/>
</clipPath>
<clipPath id="clip1">
<rect width="206.238" height="203" fill="white" transform="translate(77 320)"/>
</clipPath>
</defs>
</svg>
