<svg width="108" height="108" viewBox="0 0 108 108" fill="none" xmlns="http://www.w3.org/2000/svg">
<path d="M25.7993 49.6016L25.777 50.2151C25.6729 51.6951 25.539 52.8999 25.3754 53.8295C25.2118 54.7591 25.0258 55.328 24.8176 55.5362C24.535 55.8412 24.0925 55.9936 23.4901 55.9936C22.8431 55.9936 22.3783 55.8672 22.0957 55.6143C21.9842 55.4879 21.9098 55.3726 21.8726 55.2685C21.8354 55.1644 21.8168 54.9748 21.8168 54.6996V54.5992V54.4876V54.3538C21.8391 52.264 22.0399 50.1631 22.4192 48.051C22.7985 45.9389 23.3005 44.0165 23.9252 42.2837C24.5499 40.5435 25.2341 39.1676 25.9778 38.1562C26.7215 37.1374 27.4614 36.6279 28.1977 36.6279C28.5323 36.6279 28.7815 36.7432 28.9451 36.9737C29.1161 37.1969 29.2017 37.5204 29.2017 37.9443C29.2017 38.5764 29.1347 39.2494 29.0009 39.9634C28.867 40.6699 28.7034 41.2462 28.51 41.6925C28.3241 42.1387 28.1345 42.3618 27.9411 42.3618C27.7626 42.3618 27.6734 42.0494 27.6734 41.4247V41.2128V41.0789C27.6734 40.4542 27.6585 40.0452 27.6288 39.8518C27.6064 39.6585 27.5507 39.5283 27.4614 39.4614C27.3796 39.625 27.3201 39.8146 27.2829 40.0303C27.1045 40.9227 26.9594 41.7296 26.8479 42.451C26.7363 43.1724 26.569 44.3437 26.3459 45.965C26.3385 46.0542 26.3273 46.1546 26.3124 46.2662C26.2976 46.3777 26.2864 46.4781 26.279 46.5673H26.4351C26.5244 46.5599 26.6062 46.5562 26.6806 46.5562C26.7549 46.5488 26.8702 46.545 27.0264 46.545C27.309 46.5079 27.5618 46.4893 27.7849 46.4893C28.6699 46.4893 29.1124 46.7198 29.1124 47.1809C29.1124 47.4189 29.0269 47.7089 28.8558 48.051C28.6922 48.3857 28.4952 48.6646 28.2646 48.8877C28.0341 49.1108 27.7701 49.2744 27.4726 49.3785C27.1825 49.4752 26.7624 49.5421 26.212 49.5793C26.093 49.5793 26.0075 49.583 25.9555 49.5904C25.9108 49.5904 25.8588 49.5942 25.7993 49.6016ZM33.8646 48.5976L33.82 48.8207C33.82 48.9472 33.8051 49.1294 33.7754 49.3673C33.7456 49.7317 33.7047 50.0292 33.6526 50.2598C33.6006 50.4903 33.5225 50.6837 33.4184 50.8398C33.3143 50.9886 33.173 51.1485 32.9945 51.3195C32.4516 51.8178 31.905 52.0669 31.3546 52.0669C30.9084 52.0669 30.5775 51.9033 30.3618 51.5761C30.1536 51.2489 30.0495 50.7209 30.0495 49.992C30.0495 49.412 30.1127 48.698 30.2391 47.8502C30.373 46.995 30.5329 46.229 30.7188 45.5522L30.808 45.2622C30.808 45.2175 30.8303 45.1246 30.875 44.9833C31.1501 43.9719 31.403 43.2245 31.6335 42.7411C31.8641 42.2502 32.143 41.8561 32.4702 41.5586C32.7602 41.3281 33.0874 41.2128 33.4519 41.2128C33.9799 41.2128 34.2997 41.5326 34.4112 42.1721C34.5153 42.0829 34.6157 41.9788 34.7124 41.8598C34.9281 41.5995 35.0954 41.4284 35.2144 41.3466C35.3334 41.2574 35.471 41.2128 35.6271 41.2128C36.2667 41.2128 36.5865 41.8449 36.5865 43.1092C36.5865 43.8008 36.5121 44.4701 36.3634 45.1172C36.2147 45.7642 36.025 46.2922 35.7945 46.7012C35.5714 47.1102 35.3483 47.3148 35.1252 47.3148C34.8797 47.3148 34.757 46.8499 34.757 45.9203C34.757 45.4295 34.7273 45.0465 34.6678 44.7713C34.6157 44.4887 34.5302 44.2693 34.4112 44.1132C34.1881 44.5296 34.0431 45.4816 33.9762 46.9689C33.9241 47.8316 33.8869 48.3745 33.8646 48.5976ZM39.1299 52.1116C38.7953 52.0892 38.4904 51.9368 38.2152 51.6542C37.94 51.3567 37.7429 51.0369 37.624 50.6948C37.5124 50.3453 37.4566 49.8954 37.4566 49.345C37.4566 48.1179 37.6834 46.7347 38.1371 45.1952C38.5982 43.6484 39.1188 42.5291 39.6988 41.8375C39.9294 41.5474 40.2492 41.4024 40.6582 41.4024C41.0895 41.4024 41.4354 41.5995 41.6957 41.9937C41.9634 42.3878 42.0972 42.9047 42.0972 43.5442C42.0972 44.4887 41.9597 45.5968 41.6845 46.8685C41.4168 48.1328 41.0375 49.4491 40.5467 50.8175C40.3533 51.3679 40.1153 51.7397 39.8327 51.9331C39.6394 52.0521 39.4125 52.1116 39.1522 52.1116H39.1299ZM40.4686 40.9004C39.7695 40.8781 39.42 40.4579 39.42 39.6399C39.42 39.2308 39.5204 38.7586 39.7212 38.2231C39.9294 37.6803 40.1637 37.2787 40.4239 37.0184C40.5578 36.8771 40.6917 36.7767 40.8255 36.7172C40.9668 36.6577 41.1453 36.6279 41.361 36.6279C41.7328 36.6279 42.0043 36.7209 42.1753 36.9068C42.3538 37.0853 42.4431 37.3865 42.4431 37.8104C42.4431 38.3384 42.3501 38.8404 42.1642 39.3164C41.9857 39.7849 41.744 40.1679 41.4391 40.4654C41.1342 40.7554 40.8218 40.9004 40.502 40.9004H40.4686ZM47.0502 48.5307C47.3923 48.3001 47.6526 48.0696 47.8311 47.8391C48.2253 47.3557 48.5302 46.8016 48.7458 46.1769C48.9169 45.7679 49.0507 45.3105 49.1474 44.8048C49.2441 44.2991 49.2924 43.8268 49.2924 43.3881C49.2924 42.979 49.2069 42.7745 49.0359 42.7745C48.7979 42.7745 48.4335 43.2988 47.9426 44.3474C47.6526 44.9796 47.4146 45.6117 47.2287 46.2438C47.0502 46.8685 46.961 47.4077 46.961 47.8614C46.961 48.0175 46.9907 48.2406 47.0502 48.5307ZM47.0725 48.8877C47.1543 49.3339 47.4444 49.557 47.9426 49.557C48.5004 49.557 49.2255 49.2298 50.1179 48.5753C50.6385 48.196 50.9881 48.0064 51.1665 48.0064C51.3897 48.0064 51.5979 48.0659 51.7912 48.1849C51.9846 48.3039 52.0813 48.4266 52.0813 48.553C52.0813 48.6869 51.9734 48.8616 51.7578 49.0773C51.3636 49.4715 50.91 49.8582 50.3968 50.2375C49.8837 50.6093 49.3891 50.9216 48.9132 51.1745C48.4372 51.4199 47.9612 51.617 47.4853 51.7657C47.0093 51.907 46.5854 51.9777 46.2136 51.9777C45.284 51.9777 44.5403 51.7137 43.9825 51.1857C43.4247 50.6502 43.1458 49.94 43.1458 49.055C43.1458 48.3782 43.2909 47.6159 43.5809 46.7681C43.8784 45.9129 44.2763 45.1134 44.7745 44.3697C45.362 43.4996 46.0834 42.7745 46.9387 42.1944C47.9947 41.4954 49.0061 41.1458 49.9729 41.1458C50.672 41.1458 51.2186 41.369 51.6128 41.8152C52.0144 42.2539 52.2151 42.8601 52.2151 43.6335C52.2151 44.2359 52.0553 44.8643 51.7355 45.5187C51.4231 46.1732 50.9583 46.8016 50.341 47.404C49.8353 47.9097 49.3371 48.3039 48.8462 48.5865C48.3628 48.8691 47.9389 49.0104 47.5745 49.0104C47.4109 49.0104 47.2436 48.9695 47.0725 48.8877ZM57.737 46.11L58.4064 45.3291C59.0831 44.578 59.6186 44.0202 60.0127 43.6558C60.4143 43.284 60.7713 43.0162 61.0836 42.8526C61.4034 42.689 61.7269 42.6072 62.0542 42.6072C62.5822 42.6072 62.954 42.7485 63.1697 43.0311C63.3854 43.3137 63.4932 43.8045 63.4932 44.5036C63.4932 44.7936 63.4635 45.2213 63.404 45.7865C63.3147 46.5376 63.2701 47.2441 63.2701 47.906C63.2701 48.6497 63.3073 49.2521 63.3816 49.7132C63.4337 49.9958 63.5118 50.2784 63.6159 50.561C63.6903 50.8287 63.7275 51.0109 63.7275 51.1076C63.7275 51.2266 63.6828 51.3195 63.5936 51.3865C63.3631 51.5873 63.0581 51.762 62.6789 51.9108C62.2996 52.0595 61.9798 52.1339 61.7195 52.1339C61.2956 52.1339 60.9089 51.9888 60.5593 51.6988C60.2172 51.4088 59.9495 51.0072 59.7562 50.494C59.5702 49.9809 59.4773 49.4008 59.4773 48.7538C59.4773 48.3225 59.5219 47.813 59.6111 47.2255L59.5665 47.1809C59.2467 47.5379 58.9864 47.8205 58.7856 48.0287C58.5923 48.2369 58.4101 48.434 58.239 48.6199C57.4061 49.5719 56.6996 50.4308 56.1195 51.1968C55.8964 51.4943 55.6919 51.7546 55.506 51.9777C55.2308 52.2529 54.9185 52.3904 54.5689 52.3904C54.093 52.3904 53.7062 52.212 53.4088 51.855C53.1113 51.498 52.9626 51.0369 52.9626 50.4717C52.9626 50.1222 53.0035 49.6946 53.0853 49.1889C53.1671 48.6831 53.2749 48.144 53.4088 47.5713C53.5501 46.9912 53.7137 46.3963 53.8996 45.7865C54.093 45.1766 54.3012 44.5966 54.5243 44.0462C54.8664 43.1315 55.2829 42.4176 55.7737 41.9044C56.1084 41.5698 56.5137 41.4024 56.9896 41.4024C57.7631 41.4024 58.1498 41.9044 58.1498 42.9084C58.1498 43.6446 57.9973 44.697 57.6924 46.0654L57.737 46.11ZM71.6924 47.0916V46.4446C71.3131 46.7793 71.0305 46.9466 70.8446 46.9466C70.7405 46.9466 70.6884 46.8946 70.6884 46.7905C70.6884 46.7458 70.7107 46.6529 70.7553 46.5116C70.9115 46.0654 70.9896 45.634 70.9896 45.2175C70.9896 44.6152 70.8594 43.9905 70.5992 43.3435C70.4876 43.0088 70.35 42.8415 70.1864 42.8415C70.1046 42.8415 70.0377 42.8786 69.9856 42.953C69.7402 43.2356 69.5059 43.6372 69.2828 44.1578C69.0597 44.6709 68.8738 45.2324 68.7251 45.8422C68.5838 46.4446 68.5131 46.9801 68.5131 47.4486C68.5131 48.3336 68.7808 48.7761 69.3163 48.7761C69.584 48.7761 69.941 48.6199 70.3872 48.3076C70.8409 47.9878 71.2759 47.5825 71.6924 47.0916ZM72.0382 41.7929L72.1498 41.3355C72.3803 40.3166 72.5885 39.4949 72.7744 38.8702C72.9604 38.238 73.15 37.7063 73.3434 37.2749C73.5442 36.8362 73.7412 36.5201 73.9346 36.3267C74.247 35.9921 74.8084 35.8247 75.6191 35.8247C75.976 35.8247 76.24 35.8433 76.4111 35.8805C76.5896 35.9177 76.7309 35.9846 76.835 36.0813C76.478 37.1894 76.2289 38.0223 76.0876 38.5801C75.9537 39.1304 75.805 39.889 75.6414 40.8558C75.3885 42.4324 75.2621 43.8566 75.2621 45.1283C75.2621 45.9687 75.329 46.8425 75.4629 47.7498C75.6042 48.6497 75.831 49.6537 76.1434 50.7618C75.7492 51.0369 75.3699 51.2712 75.0055 51.4645C74.6485 51.6579 74.3065 51.8104 73.9792 51.9219C73.6594 52.0335 73.3768 52.0892 73.1314 52.0892C72.7001 52.0892 72.3952 51.8773 72.2167 51.4534C72.0679 51.1039 71.9713 50.825 71.9266 50.6167C71.882 50.4011 71.8039 49.8098 71.6924 48.843C70.6958 49.8842 69.7402 50.706 68.8255 51.3084C67.9182 51.9033 67.1931 52.2008 66.6502 52.2008C66.0255 52.2008 65.5123 51.9479 65.1107 51.4422C64.7166 50.9291 64.5195 50.2709 64.5195 49.4677C64.5195 48.7464 64.6719 47.9469 64.9769 47.0693C65.2892 46.1843 65.7168 45.3291 66.2597 44.5036C66.6167 43.9607 66.9811 43.5033 67.353 43.1315C67.7322 42.7522 68.1599 42.4027 68.6358 42.0829C69.4985 41.5177 70.2199 41.2351 70.8 41.2351C71.0826 41.2351 71.4953 41.421 72.0382 41.7929ZM80.5497 52.4797C80.9885 52.4574 81.3864 52.2454 81.7433 51.8438C82.1078 51.4348 82.29 50.9923 82.29 50.5163C82.29 50.1891 82.1821 49.9288 81.9665 49.7355C81.7359 49.5049 81.219 49.2781 80.4159 49.055C79.2334 48.7129 78.4637 48.3299 78.1067 47.906C77.772 47.5639 77.6047 47.1549 77.6047 46.6789C77.6047 45.8237 77.9133 44.9684 78.5306 44.1132C79.1553 43.2579 79.9511 42.5589 80.9179 42.016C81.8847 41.4656 82.8589 41.1905 83.8406 41.1905C84.3165 41.1905 84.7627 41.302 85.1792 41.5251C85.5957 41.7482 85.9266 42.0457 86.172 42.4176C86.4174 42.782 86.5401 43.1798 86.5401 43.6112C86.5401 44.0351 86.4063 44.4739 86.1386 44.9275C85.8708 45.3812 85.5324 45.7604 85.1234 46.0654C84.7218 46.3628 84.3388 46.5116 83.9744 46.5116C83.7662 46.5116 83.584 46.4669 83.4278 46.3777C83.2791 46.2885 83.2047 46.1918 83.2047 46.0877C83.2047 45.9835 83.2344 45.8311 83.2939 45.6303C83.4576 44.9907 83.5394 44.433 83.5394 43.957C83.5394 43.4885 83.3981 43.046 83.1155 42.6295C82.751 42.8824 82.5131 43.0832 82.4015 43.2319C82.1189 43.5591 81.8995 43.931 81.7433 44.3474C81.5723 44.7713 81.4868 45.1729 81.4868 45.5522C81.4868 45.8199 81.5463 46.0356 81.6653 46.1992C81.7917 46.3554 81.9925 46.4893 82.2677 46.6008C82.5503 46.7124 82.9742 46.8351 83.5394 46.9689C84.4838 47.1995 85.1494 47.4226 85.5362 47.6383C85.6254 47.6903 85.763 47.7982 85.9489 47.9618C86.2315 48.2667 86.3728 48.6608 86.3728 49.1442C86.3728 49.6574 86.2129 50.178 85.8931 50.706C85.5734 51.2266 85.0788 51.7657 84.4095 52.3235C83.6955 52.9259 82.9853 53.3572 82.2788 53.6175C81.5723 53.8778 80.7914 54.008 79.9362 54.008C79.1107 54.008 78.46 53.8444 77.984 53.5171C77.5155 53.1899 77.2812 52.7437 77.2812 52.1785C77.2812 51.7769 77.4374 51.3716 77.7497 50.9626C78.0621 50.5461 78.4488 50.2077 78.9099 49.9474C79.3784 49.6871 79.8358 49.557 80.282 49.557C80.6167 49.557 80.784 49.6313 80.784 49.7801C80.784 49.8545 80.7356 49.9772 80.639 50.1482C80.3489 50.6688 80.2039 51.1485 80.2039 51.5873C80.2039 51.8996 80.3192 52.1971 80.5497 52.4797ZM39.6319 60.2351C40.1971 60.2574 40.647 60.421 40.9817 60.7259C41.3164 61.0308 41.4837 61.4399 41.4837 61.953C41.4837 62.3992 41.3536 62.8492 41.0933 63.3028C40.8404 63.7565 40.5169 64.1283 40.1227 64.4183C39.736 64.7084 39.3456 64.8534 38.9514 64.8534C38.7209 64.8534 38.6056 64.7716 38.6056 64.608C38.6056 64.5485 38.6502 64.4183 38.7395 64.2175C39.0295 63.7267 39.1745 63.1615 39.1745 62.5219C39.1745 62.2021 39.1374 62.0423 39.063 62.0423C38.9589 62.0423 38.8101 62.1761 38.6168 62.4438C38.4234 62.7116 38.2598 63.0276 38.1259 63.3921C37.8954 63.9647 37.702 64.5745 37.5459 65.2215C37.3971 65.8685 37.3228 66.4152 37.3228 66.8614C37.3228 67.3671 37.3971 67.7649 37.5459 68.055C37.702 68.345 37.9177 68.49 38.1929 68.49C38.4457 68.49 38.7841 68.3562 39.208 68.0885C39.6319 67.8207 40.0335 67.4898 40.4128 67.0956C40.569 66.8948 40.7065 66.7944 40.8255 66.7944C41.004 66.7944 41.0933 66.8948 41.0933 67.0956C41.0933 68.0104 40.7363 68.8396 40.0223 69.5833C39.5315 70.0741 38.9663 70.472 38.3267 70.7769C37.6946 71.0744 37.1257 71.2231 36.62 71.2231C35.735 71.2231 34.9987 70.9442 34.4112 70.3865C33.8237 69.8287 33.5299 69.1259 33.5299 68.2781C33.5299 67.4303 33.7159 66.5416 34.0877 65.612C34.467 64.6749 34.9801 63.7862 35.6271 62.9458C36.2816 62.1055 37.0216 61.4027 37.8471 60.8375C38.442 60.4359 39.0221 60.2351 39.5873 60.2351H39.6319ZM48.3331 62.6558C48.6306 61.8154 48.8797 60.9379 49.0805 60.0231C49.2813 59.101 49.3817 58.3945 49.3817 57.9036C49.3817 57.7698 49.3445 57.7028 49.2701 57.7028C49.1511 57.7028 48.9429 57.9706 48.6454 58.506C48.348 59.034 48.0988 59.5732 47.898 60.1235C47.4667 61.3358 47.132 62.3435 46.894 63.1466C46.6635 63.9424 46.5036 64.6117 46.4144 65.1546C46.3251 65.6975 46.2805 66.2515 46.2805 66.8167C46.2805 67.3001 46.3326 67.6534 46.4367 67.8765C46.5482 68.0996 46.723 68.2112 46.961 68.2112C47.37 68.2112 47.8274 68.0327 48.3331 67.6757C48.8388 67.3113 49.2962 66.8353 49.7052 66.2478C50.025 65.809 50.2741 65.5897 50.4526 65.5897C50.6831 65.5897 50.7984 65.7719 50.7984 66.1363C50.7984 66.932 50.5493 67.7092 50.051 68.4677C49.5527 69.2263 48.9094 69.8436 48.1211 70.3195C47.3403 70.788 46.5408 71.0223 45.7227 71.0223C44.7188 71.0223 43.9007 70.7062 43.2686 70.0741C42.6364 69.442 42.3204 68.6165 42.3204 67.5976C42.3204 66.7647 42.4988 65.7905 42.8558 64.6749C43.2128 63.5519 43.6887 62.4253 44.2837 61.2948C44.8861 60.157 45.5442 59.127 46.2582 58.2048C46.9721 57.2826 47.6786 56.5761 48.3777 56.0853C48.809 55.7655 49.2887 55.6056 49.8167 55.6056C50.2183 55.6056 50.5827 55.732 50.91 55.9849C51.2372 56.2303 51.49 56.5761 51.6685 57.0223C51.847 57.4686 51.9363 57.9631 51.9363 58.506C51.9363 59.6736 51.7057 60.8152 51.2446 61.9307C50.791 63.0462 50.1551 64.013 49.3371 64.8311C48.9503 65.2252 48.5785 65.5339 48.2215 65.757C47.8646 65.9801 47.5522 66.0916 47.2845 66.0916C47.0242 66.0916 46.894 65.9912 46.894 65.7905C46.894 65.6789 46.9907 65.4669 47.1841 65.1546C47.4444 64.7456 47.7493 64.1283 48.0988 63.3028C48.1286 63.221 48.162 63.1355 48.1992 63.0462C48.2364 62.9496 48.281 62.8194 48.3331 62.6558ZM59.6669 67.5084L59.4773 67.6646C59.4401 67.6869 59.191 67.8765 58.7299 68.2335C57.8374 68.9325 57.1012 69.4866 56.5211 69.8956C55.941 70.2972 55.4576 70.5947 55.0709 70.788C54.6842 70.974 54.3718 71.0669 54.1339 71.0669C53.7323 71.0669 53.4088 70.9033 53.1633 70.5761C52.9254 70.2414 52.8064 69.8101 52.8064 69.2821C52.8064 68.3896 52.9402 67.3522 53.208 66.1697C53.4757 64.9798 53.8364 63.8085 54.29 62.6558C54.7883 61.3767 55.3981 60.5958 56.1195 60.3132C56.3724 60.2016 56.6698 60.1458 57.0119 60.1458C57.4805 60.1458 57.8597 60.2909 58.1498 60.5809C58.4398 60.8709 58.5848 61.2539 58.5848 61.7299C58.5848 62.0571 58.5291 62.4029 58.4175 62.7674C58.306 63.1318 58.1275 63.5668 57.8821 64.0725L57.7482 64.396C57.1086 65.7495 56.7888 66.5713 56.7888 66.8614C56.7888 67.0324 56.8483 67.1179 56.9673 67.1179C57.0789 67.1179 57.2239 67.0399 57.4024 66.8837C57.5809 66.7275 57.856 66.4412 58.2279 66.0247C58.4584 65.7421 58.7856 65.3889 59.2095 64.965L59.6223 64.5522L59.9793 64.1729C60.7304 63.4292 61.3439 62.8938 61.8199 62.5666C62.2959 62.2319 62.69 62.0646 63.0024 62.0646C63.5973 62.0646 63.8948 62.5814 63.8948 63.6152C63.8948 63.8308 63.8688 64.2138 63.8167 64.7642C63.7275 65.8351 63.6828 66.7424 63.6828 67.4861C63.6903 67.6348 63.694 67.7724 63.694 67.8988C63.7014 68.0178 63.7052 68.174 63.7052 68.3673C63.7572 68.8656 63.7944 69.2486 63.8167 69.5163C63.8688 69.9402 63.8948 70.1522 63.8948 70.1522C63.8948 70.3753 63.694 70.5724 63.2924 70.7434C62.8908 70.9145 62.426 71 61.898 71C61.4146 71 60.9981 70.907 60.6486 70.7211C60.3065 70.5278 60.0462 70.2452 59.8677 69.8733C59.6892 69.5015 59.6 69.0478 59.6 68.5124C59.6 68.4454 59.6074 68.3302 59.6223 68.1665C59.6372 67.9955 59.652 67.7761 59.6669 67.5084ZM71.3243 66.2478C71.1383 66.3073 71.0082 66.3371 70.9338 66.3371C70.6735 66.3371 70.4579 66.2404 70.2868 66.047C70.1232 65.8537 70.0414 65.6082 70.0414 65.3108C70.0414 64.7233 70.2496 63.9647 70.6661 63.0351C71.0826 62.1055 71.5213 61.4176 71.9824 60.9713C72.3171 60.6367 72.6964 60.4694 73.1203 60.4694C73.4475 60.4694 73.7301 60.5809 73.9681 60.804C74.2061 61.0197 74.3883 61.3358 74.5147 61.7522C74.6411 62.1612 74.7043 62.6409 74.7043 63.1913C74.7043 64.5745 74.4143 65.8723 73.8342 67.0845C73.2541 68.2967 72.4807 69.2635 71.5139 69.9849C70.5471 70.7062 69.5096 71.0669 68.4016 71.0669C67.6802 71.0669 67.0518 70.8959 66.5163 70.5538C65.9808 70.2117 65.5644 69.7209 65.2669 69.0813C64.9769 68.4343 64.8318 67.6869 64.8318 66.8391C64.8318 66.0359 64.962 65.136 65.2223 64.1395C65.4826 63.1355 65.847 62.1166 66.3155 61.0829C66.784 60.0417 67.3418 59.0303 67.9888 58.0486C68.673 56.9852 69.4576 56.156 70.3426 55.561C70.9524 55.1297 71.592 54.914 72.2613 54.914C72.9455 54.914 73.4921 55.1222 73.9011 55.5387C74.3102 55.9552 74.5147 56.5092 74.5147 57.2008C74.5147 57.6917 74.325 58.2085 73.9458 58.7514C73.5739 59.2869 73.1017 59.7294 72.529 60.0789C71.9638 60.4284 71.4098 60.6032 70.8669 60.6032C70.6066 60.6032 70.4764 60.5363 70.4764 60.4024C70.4764 60.2983 70.5843 60.1087 70.8 59.8335C71.1569 59.3873 71.4581 58.8741 71.7035 58.2941C71.949 57.7065 72.0717 57.1971 72.0717 56.7658C72.0717 56.3716 72.0122 56.1745 71.8932 56.1745C71.7444 56.1745 71.5139 56.42 71.2015 56.9108C70.8892 57.4016 70.6103 57.9631 70.3649 58.5953C69.7848 60.1124 69.3386 61.5551 69.0263 62.9235C68.7139 64.2845 68.5577 65.4446 68.5577 66.404C68.5577 67.1254 68.673 67.7352 68.9035 68.2335C69.1415 68.7243 69.4278 68.9697 69.7625 68.9697C70.1864 68.9697 70.5397 68.7317 70.8223 68.2558C71.1049 67.7724 71.2722 67.1031 71.3243 66.2478Z" fill="url(#paint0_linear)"/>
<defs>
<linearGradient id="paint0_linear" x1="0.0576884" y1="11.2991" x2="36.9356" y2="93.1874" gradientUnits="userSpaceOnUse">
<stop stop-color="#0047FF"/>
<stop offset="1" stop-color="#CC00FF" stop-opacity="0.91"/>
</linearGradient>
</defs>
</svg>
