<svg width="108" height="108" viewBox="0 0 108 108" fill="none" xmlns="http://www.w3.org/2000/svg">
<path d="M18.89 49.0565L18.8626 49.8095C18.7349 51.6258 18.5706 53.1044 18.3698 54.2453C18.169 55.3862 17.9408 56.0844 17.6853 56.3399C17.3384 56.7141 16.7954 56.9013 16.0561 56.9013C15.262 56.9013 14.6916 56.7461 14.3447 56.4358C14.2078 56.2806 14.1166 56.1391 14.0709 56.0114C14.0253 55.8836 14.0025 55.6508 14.0025 55.3131V55.1899V55.053V54.8887C14.0298 52.324 14.2763 49.7456 14.7418 47.1535C15.2072 44.5614 15.8233 42.2021 16.59 40.0754C17.3567 37.9397 18.1964 36.2512 19.1091 35.0099C20.0218 33.7595 20.9299 33.1343 21.8335 33.1343C22.2442 33.1343 22.55 33.2757 22.7508 33.5587C22.9607 33.8325 23.0657 34.2295 23.0657 34.7498C23.0657 35.5256 22.9835 36.3516 22.8192 37.2278C22.655 38.0949 22.4542 38.8022 22.2169 39.3498C21.9887 39.8975 21.7559 40.1713 21.5186 40.1713C21.2996 40.1713 21.1901 39.7879 21.1901 39.0213V38.7611V38.5968C21.1901 37.8302 21.1718 37.3282 21.1353 37.0909C21.1079 36.8536 21.0395 36.6938 20.9299 36.6117C20.8295 36.8125 20.7565 37.0452 20.7109 37.3099C20.4918 38.4052 20.3139 39.3955 20.1769 40.2808C20.04 41.1661 19.8347 42.6036 19.5609 44.5934C19.5517 44.7029 19.5381 44.8261 19.5198 44.963C19.5015 45.0999 19.4879 45.2231 19.4787 45.3327H19.6704C19.7799 45.3235 19.8803 45.319 19.9716 45.319C20.0629 45.3098 20.2043 45.3053 20.396 45.3053C20.7428 45.2596 21.0532 45.2368 21.327 45.2368C22.4131 45.2368 22.9562 45.5198 22.9562 46.0856C22.9562 46.3777 22.8512 46.7337 22.6413 47.1535C22.4405 47.5642 22.1986 47.9065 21.9157 48.1803C21.6327 48.4541 21.3087 48.6549 20.9436 48.7827C20.5877 48.9013 20.072 48.9835 19.3966 49.0291C19.2505 49.0291 19.1456 49.0337 19.0817 49.0428C19.0269 49.0428 18.963 49.0474 18.89 49.0565ZM28.7884 47.8244L28.7336 48.0982C28.7336 48.2533 28.7154 48.4769 28.6788 48.769C28.6423 49.2162 28.5921 49.5813 28.5282 49.8643C28.4644 50.1472 28.3685 50.3845 28.2407 50.5762C28.113 50.7587 27.9396 50.9549 27.7205 51.1649C27.0542 51.7764 26.3834 52.0821 25.708 52.0821C25.1603 52.0821 24.7542 51.8813 24.4895 51.4798C24.2339 51.0782 24.1062 50.4301 24.1062 49.5357C24.1062 48.8238 24.1837 47.9476 24.3389 46.9071C24.5032 45.8575 24.6994 44.9174 24.9276 44.0868L25.0371 43.7308C25.0371 43.6761 25.0645 43.562 25.1193 43.3886C25.457 42.1473 25.7673 41.23 26.0502 40.6368C26.3332 40.0344 26.6754 39.5506 27.077 39.1855C27.433 38.9026 27.8346 38.7611 28.2818 38.7611C28.9298 38.7611 29.3223 39.1536 29.4592 39.9385C29.587 39.829 29.7102 39.7012 29.8289 39.5552C30.0935 39.2357 30.2989 39.0258 30.4449 38.9254C30.591 38.8159 30.7598 38.7611 30.9515 38.7611C31.7364 38.7611 32.1289 39.5369 32.1289 41.0885C32.1289 41.9374 32.0376 42.7588 31.8551 43.5529C31.6725 44.3469 31.4398 44.9949 31.1569 45.4969C30.883 45.9989 30.6092 46.2499 30.3354 46.2499C30.0342 46.2499 29.8836 45.6795 29.8836 44.5386C29.8836 43.9362 29.8471 43.4662 29.7741 43.1285C29.7102 42.7816 29.6052 42.5124 29.4592 42.3207C29.1854 42.8318 29.0074 44.0001 28.9253 45.8255C28.8614 46.8843 28.8158 47.5505 28.7884 47.8244ZM35.2504 52.1369C34.8396 52.1095 34.4654 51.9224 34.1277 51.5756C33.79 51.2105 33.5482 50.818 33.4021 50.3982C33.2652 49.9692 33.1968 49.417 33.1968 48.7416C33.1968 47.2357 33.4751 45.538 34.0319 43.6487C34.5978 41.7503 35.2367 40.3766 35.9486 39.5278C36.2315 39.1719 36.624 38.9939 37.126 38.9939C37.6554 38.9939 38.0798 39.2357 38.3992 39.7195C38.7278 40.2032 38.8921 40.8376 38.8921 41.6225C38.8921 42.7816 38.7232 44.1416 38.3855 45.7023C38.0569 47.2539 37.5915 48.8694 36.9891 50.5488C36.7518 51.2242 36.4597 51.6806 36.1129 51.9179C35.8756 52.0639 35.5972 52.1369 35.2777 52.1369H35.2504ZM36.8932 38.3778C36.0353 38.3504 35.6063 37.8347 35.6063 36.8308C35.6063 36.3288 35.7295 35.7492 35.976 35.092C36.2315 34.4258 36.519 33.9329 36.8385 33.6135C37.0028 33.44 37.1671 33.3168 37.3313 33.2438C37.5048 33.1708 37.7238 33.1343 37.9885 33.1343C38.4448 33.1343 38.778 33.2484 38.9879 33.4765C39.207 33.6956 39.3165 34.0652 39.3165 34.5855C39.3165 35.2335 39.2024 35.8496 38.9742 36.4337C38.7552 37.0087 38.4585 37.4788 38.0843 37.8439C37.7101 38.1998 37.3268 38.3778 36.9343 38.3778H36.8932ZM44.9707 47.7422C45.3906 47.4593 45.71 47.1763 45.9291 46.8934C46.4128 46.3001 46.787 45.6202 47.0517 44.8535C47.2616 44.3515 47.4259 43.7902 47.5446 43.1695C47.6632 42.5489 47.7225 41.9693 47.7225 41.4308C47.7225 40.9288 47.6176 40.6778 47.4077 40.6778C47.1156 40.6778 46.6684 41.3213 46.066 42.6082C45.71 43.384 45.418 44.1598 45.1898 44.9356C44.9707 45.7023 44.8612 46.364 44.8612 46.9208C44.8612 47.1124 44.8977 47.3862 44.9707 47.7422ZM44.9981 48.1803C45.0985 48.7279 45.4545 49.0017 46.066 49.0017C46.7505 49.0017 47.6404 48.6002 48.7357 47.797C49.3746 47.3315 49.8035 47.0987 50.0226 47.0987C50.2964 47.0987 50.5519 47.1718 50.7893 47.3178C51.0266 47.4638 51.1452 47.6144 51.1452 47.7696C51.1452 47.9339 51.0129 48.1484 50.7482 48.413C50.2644 48.8968 49.7077 49.3714 49.0779 49.8369C48.4481 50.2932 47.8412 50.6766 47.2571 50.9869C46.6729 51.2881 46.0888 51.53 45.5047 51.7125C44.9205 51.8859 44.4003 51.9726 43.9439 51.9726C42.803 51.9726 41.8903 51.6486 41.2058 51.0006C40.5213 50.3434 40.179 49.4718 40.179 48.3857C40.179 47.5551 40.357 46.6196 40.7129 45.5791C41.078 44.5295 41.5663 43.5483 42.1778 42.6356C42.8989 41.5677 43.7842 40.6778 44.8338 39.9659C46.1299 39.108 47.3712 38.679 48.5577 38.679C49.4156 38.679 50.0865 38.9528 50.5702 39.5004C51.0631 40.0389 51.3095 40.7828 51.3095 41.732C51.3095 42.4713 51.1133 43.2425 50.7208 44.0457C50.3375 44.8489 49.767 45.6202 49.0095 46.3595C48.3888 46.9801 47.7773 47.4638 47.1749 47.8107C46.5817 48.1575 46.0614 48.3309 45.6142 48.3309C45.4134 48.3309 45.208 48.2807 44.9981 48.1803ZM58.0864 44.7713L58.9078 43.813C59.7384 42.8912 60.3955 42.2066 60.8793 41.7594C61.3721 41.303 61.8102 40.9745 62.1936 40.7737C62.586 40.5729 62.9831 40.4725 63.3847 40.4725C64.0327 40.4725 64.489 40.6459 64.7537 40.9927C65.0184 41.3395 65.1507 41.9419 65.1507 42.7999C65.1507 43.1558 65.1142 43.6806 65.0412 44.3743C64.9317 45.2961 64.8769 46.1632 64.8769 46.9755C64.8769 47.8882 64.9226 48.6275 65.0138 49.1934C65.0777 49.5402 65.1736 49.8871 65.3013 50.2339C65.3926 50.5625 65.4383 50.7861 65.4383 50.9047C65.4383 51.0508 65.3835 51.1649 65.274 51.247C64.991 51.4934 64.6168 51.7079 64.1513 51.8905C63.6858 52.073 63.2934 52.1643 62.9739 52.1643C62.4537 52.1643 61.9791 51.9863 61.5501 51.6304C61.1303 51.2744 60.8017 50.7815 60.5644 50.1518C60.3362 49.522 60.2221 48.8101 60.2221 48.016C60.2221 47.4866 60.2769 46.8614 60.3864 46.1404L60.3316 46.0856C59.9392 46.5237 59.6197 46.8706 59.3733 47.1261C59.136 47.3817 58.9124 47.6236 58.7025 47.8517C57.6802 49.02 56.8131 50.0742 56.1012 51.0143C55.8274 51.3794 55.5764 51.6988 55.3482 51.9726C55.0105 52.3103 54.6272 52.4792 54.1982 52.4792C53.6141 52.4792 53.1395 52.2601 52.7744 51.822C52.4093 51.3839 52.2268 50.818 52.2268 50.1244C52.2268 49.6954 52.277 49.1706 52.3774 48.55C52.4778 47.9293 52.6101 47.2676 52.7744 46.5648C52.9478 45.8529 53.1486 45.1227 53.3768 44.3743C53.6141 43.6259 53.8697 42.914 54.1435 42.2386C54.5633 41.1159 55.0744 40.2397 55.6768 39.61C56.0875 39.1992 56.585 38.9939 57.1691 38.9939C58.1183 38.9939 58.5929 39.61 58.5929 40.8421C58.5929 41.7457 58.4058 43.0372 58.0316 44.7166L58.0864 44.7713ZM75.2134 45.9761V45.1821C74.7479 45.5928 74.4011 45.7981 74.1729 45.7981C74.0451 45.7981 73.9812 45.7342 73.9812 45.6065C73.9812 45.5517 74.0086 45.4376 74.0634 45.2642C74.255 44.7166 74.3509 44.1872 74.3509 43.6761C74.3509 42.9368 74.1911 42.1701 73.8717 41.3761C73.7348 40.9653 73.5659 40.76 73.3651 40.76C73.2647 40.76 73.1826 40.8056 73.1187 40.8969C72.8175 41.2437 72.53 41.7366 72.2562 42.3755C71.9824 43.0052 71.7542 43.6943 71.5717 44.4428C71.3982 45.1821 71.3115 45.8392 71.3115 46.4142C71.3115 47.5003 71.6401 48.0434 72.2973 48.0434C72.6258 48.0434 73.0639 47.8517 73.6116 47.4684C74.1683 47.0759 74.7023 46.5785 75.2134 45.9761ZM75.6378 39.4731L75.7747 38.9117C76.0576 37.6613 76.3132 36.6528 76.5414 35.8861C76.7695 35.1103 77.0023 34.4577 77.2396 33.9283C77.486 33.3898 77.7279 33.0019 77.9652 32.7646C78.3485 32.3539 79.0376 32.1486 80.0325 32.1486C80.4706 32.1486 80.7946 32.1714 81.0045 32.217C81.2236 32.2626 81.397 32.3448 81.5248 32.4634C81.0867 33.8234 80.7809 34.8456 80.6075 35.5301C80.4432 36.2055 80.2607 37.1365 80.0599 38.323C79.7495 40.258 79.5944 42.0058 79.5944 43.5666C79.5944 44.5979 79.6765 45.6704 79.8408 46.7839C80.0142 47.8882 80.2926 49.1204 80.6759 50.4803C80.1922 50.818 79.7267 51.1055 79.2795 51.3428C78.8414 51.5802 78.4216 51.7673 78.02 51.9042C77.6275 52.0411 77.2807 52.1095 76.9795 52.1095C76.4501 52.1095 76.0759 51.8494 75.8568 51.3292C75.6743 50.9002 75.5556 50.5579 75.5009 50.3024C75.4461 50.0377 75.3503 49.3121 75.2134 48.1255C73.9903 49.4033 72.8175 50.4119 71.6949 51.1512C70.5814 51.8813 69.6915 52.2464 69.0252 52.2464C68.2585 52.2464 67.6288 51.9361 67.1359 51.3155C66.6522 50.6857 66.4103 49.8779 66.4103 48.8922C66.4103 48.0069 66.5974 47.0257 66.9716 45.9487C67.3549 44.8626 67.8798 43.813 68.546 42.7999C68.9841 42.1336 69.4314 41.5723 69.8877 41.1159C70.3532 40.6504 70.878 40.2215 71.4621 39.829C72.5209 39.1353 73.4062 38.7885 74.1181 38.7885C74.465 38.7885 74.9715 39.0167 75.6378 39.4731ZM86.0838 52.5887C86.6223 52.5613 87.1106 52.3012 87.5487 51.8083C87.9959 51.3063 88.2195 50.7633 88.2195 50.1791C88.2195 49.7776 88.0872 49.4581 87.8225 49.2208C87.5395 48.9379 86.9052 48.6595 85.9195 48.3857C84.4683 47.9658 83.5236 47.4958 83.0855 46.9755C82.6748 46.5557 82.4694 46.0537 82.4694 45.4696C82.4694 44.4199 82.8482 43.3703 83.6058 42.3207C84.3724 41.2711 85.349 40.4131 86.5356 39.7469C87.7221 39.0715 88.9177 38.7338 90.1225 38.7338C90.7066 38.7338 91.2543 38.8707 91.7654 39.1445C92.2765 39.4183 92.6827 39.7834 92.9838 40.2397C93.285 40.687 93.4356 41.1753 93.4356 41.7046C93.4356 42.2249 93.2714 42.7634 92.9428 43.3201C92.6142 43.8769 92.1989 44.3424 91.6969 44.7166C91.2041 45.0817 90.734 45.2642 90.2868 45.2642C90.0312 45.2642 89.8076 45.2094 89.6159 45.0999C89.4334 44.9904 89.3421 44.8717 89.3421 44.744C89.3421 44.6162 89.3786 44.4291 89.4517 44.1826C89.6525 43.3977 89.7529 42.7132 89.7529 42.129C89.7529 41.554 89.5794 41.011 89.2326 40.4999C88.7854 40.8102 88.4933 41.0566 88.3564 41.2391C88.0096 41.6407 87.7403 42.0971 87.5487 42.6082C87.3387 43.1285 87.2338 43.6213 87.2338 44.0868C87.2338 44.4154 87.3068 44.6801 87.4528 44.8809C87.608 45.0725 87.8544 45.2368 88.1921 45.3737C88.5389 45.5106 89.0592 45.6612 89.7529 45.8255C90.912 46.1085 91.7289 46.3823 92.2035 46.647C92.313 46.7108 92.4819 46.8432 92.71 47.044C93.0569 47.4182 93.2303 47.9019 93.2303 48.4952C93.2303 49.125 93.034 49.7639 92.6416 50.4119C92.2491 51.0508 91.6422 51.7125 90.8207 52.397C89.9445 53.1363 89.0729 53.6657 88.2058 53.9851C87.3387 54.3046 86.3804 54.4643 85.3308 54.4643C84.3177 54.4643 83.519 54.2635 82.9349 53.8619C82.3599 53.4603 82.0724 52.9127 82.0724 52.2191C82.0724 51.7262 82.2641 51.2288 82.6474 50.7268C83.0307 50.2157 83.5054 49.8004 84.0712 49.4809C84.6462 49.1615 85.2076 49.0017 85.7552 49.0017C86.1659 49.0017 86.3713 49.093 86.3713 49.2756C86.3713 49.3668 86.3119 49.5174 86.1933 49.7274C85.8373 50.3662 85.6593 50.9549 85.6593 51.4934C85.6593 51.8768 85.8008 52.2419 86.0838 52.5887ZM35.8664 61.7885C36.5601 61.8159 37.1123 62.0167 37.523 62.3909C37.9337 62.7651 38.1391 63.2671 38.1391 63.8969C38.1391 64.4445 37.9794 64.9967 37.6599 65.5534C37.3496 66.1102 36.9526 66.5666 36.4688 66.9225C35.9942 67.2785 35.515 67.4564 35.0313 67.4564C34.7484 67.4564 34.6069 67.3561 34.6069 67.1553C34.6069 67.0822 34.6617 66.9225 34.7712 66.6761C35.1271 66.0737 35.3051 65.38 35.3051 64.5951C35.3051 64.2026 35.2595 64.0064 35.1682 64.0064C35.0404 64.0064 34.8579 64.1707 34.6206 64.4993C34.3833 64.8278 34.1825 65.2157 34.0182 65.663C33.7353 66.3658 33.498 67.1142 33.3063 67.9082C33.1237 68.7023 33.0325 69.3731 33.0325 69.9208C33.0325 70.5414 33.1237 71.0297 33.3063 71.3857C33.498 71.7416 33.7626 71.9196 34.1003 71.9196C34.4107 71.9196 34.8259 71.7553 35.3462 71.4267C35.8664 71.0982 36.3593 70.692 36.8248 70.2083C37.0165 69.9618 37.1853 69.8386 37.3313 69.8386C37.5504 69.8386 37.6599 69.9618 37.6599 70.2083C37.6599 71.3309 37.2218 72.3486 36.3456 73.2613C35.7432 73.8637 35.0496 74.352 34.2646 74.7262C33.4888 75.0913 32.7906 75.2738 32.17 75.2738C31.0838 75.2738 30.1803 74.9315 29.4592 74.247C28.7382 73.5625 28.3776 72.7 28.3776 71.6595C28.3776 70.619 28.6058 69.5283 29.0622 68.3874C29.5277 67.2374 30.1574 66.1467 30.9515 65.1153C31.7547 64.084 32.6628 63.2215 33.6759 62.5278C34.4061 62.035 35.118 61.7885 35.8117 61.7885H35.8664ZM46.5451 64.7594C46.9102 63.728 47.216 62.651 47.4624 61.5284C47.7089 60.3966 47.8321 59.5296 47.8321 58.9272C47.8321 58.7629 47.7864 58.6807 47.6952 58.6807C47.5491 58.6807 47.2936 59.0093 46.9285 59.6665C46.5634 60.3145 46.2576 60.9762 46.0112 61.6516C45.4818 63.1393 45.0711 64.3761 44.7791 65.3618C44.4961 66.3384 44.2999 67.1598 44.1904 67.8261C44.0808 68.4924 44.0261 69.1723 44.0261 69.866C44.0261 70.4593 44.09 70.8928 44.2177 71.1666C44.3546 71.4404 44.5691 71.5773 44.8612 71.5773C45.3632 71.5773 45.9245 71.3583 46.5451 70.9202C47.1658 70.473 47.7271 69.8888 48.2291 69.1678C48.6216 68.6293 48.9273 68.36 49.1464 68.36C49.4293 68.36 49.5708 68.5836 49.5708 69.0309C49.5708 70.0075 49.265 70.9613 48.6535 71.8922C48.042 72.8232 47.2525 73.5807 46.285 74.1649C45.3267 74.7399 44.3455 75.0274 43.3415 75.0274C42.1094 75.0274 41.1054 74.6395 40.3296 73.8637C39.5538 73.0879 39.1659 72.0748 39.1659 70.8244C39.1659 69.8021 39.3849 68.6065 39.823 67.2374C40.2611 65.8592 40.8453 64.4765 41.5754 63.0891C42.3147 61.6927 43.1225 60.4286 43.9987 59.2968C44.8749 58.1651 45.742 57.298 46.5999 56.6956C47.1293 56.3031 47.718 56.1069 48.366 56.1069C48.8589 56.1069 49.3061 56.2621 49.7077 56.5724C50.1093 56.8736 50.4196 57.298 50.6387 57.8456C50.8577 58.3932 50.9672 59.0002 50.9672 59.6665C50.9672 61.0994 50.6843 62.5004 50.1184 63.8695C49.5617 65.2386 48.7813 66.4251 47.7773 67.4291C47.3027 67.9128 46.8463 68.2916 46.4082 68.5654C45.9701 68.8392 45.5868 68.9761 45.2582 68.9761C44.9388 68.9761 44.7791 68.8529 44.7791 68.6065C44.7791 68.4696 44.8977 68.2094 45.135 67.8261C45.4545 67.3241 45.8287 66.5666 46.2576 65.5534C46.2942 65.4531 46.3352 65.3481 46.3809 65.2386C46.4265 65.1199 46.4813 64.9602 46.5451 64.7594ZM60.4549 70.7148L60.2221 70.9065C60.1765 70.9339 59.8707 71.1666 59.3048 71.6047C58.2096 72.4627 57.306 73.1426 56.5941 73.6446C55.8822 74.1375 55.2889 74.5026 54.8143 74.7399C54.3397 74.9681 53.9564 75.0821 53.6643 75.0821C53.1714 75.0821 52.7744 74.8813 52.4732 74.4798C52.1811 74.069 52.0351 73.5397 52.0351 72.8916C52.0351 71.7964 52.1994 70.5232 52.528 69.0719C52.8565 67.6116 53.2992 66.1741 53.856 64.7594C54.4675 63.1895 55.2159 62.2312 56.1012 61.8844C56.4115 61.7474 56.7766 61.679 57.1965 61.679C57.7715 61.679 58.237 61.857 58.5929 62.2129C58.9489 62.5689 59.1269 63.0389 59.1269 63.6231C59.1269 64.0247 59.0584 64.4491 58.9215 64.8963C58.7846 65.3435 58.5655 65.8775 58.2643 66.4981L58.1001 66.8951C57.3151 68.5563 56.9227 69.5648 56.9227 69.9208C56.9227 70.1307 56.9957 70.2357 57.1417 70.2357C57.2786 70.2357 57.4566 70.1398 57.6756 69.9481C57.8947 69.7565 58.2324 69.4051 58.6888 68.894C58.9717 68.5471 59.3733 68.1136 59.8935 67.5934L60.4001 67.0868L60.8382 66.6213C61.76 65.7086 62.513 65.0515 63.0971 64.6499C63.6813 64.2391 64.165 64.0338 64.5484 64.0338C65.2785 64.0338 65.6436 64.6681 65.6436 65.9368C65.6436 66.2015 65.6117 66.6715 65.5478 67.3469C65.4382 68.6612 65.3835 69.7747 65.3835 70.6874C65.3926 70.87 65.3972 71.0388 65.3972 71.194C65.4063 71.34 65.4109 71.5317 65.4109 71.769C65.4748 72.3805 65.5204 72.8506 65.5478 73.1791C65.6117 73.6994 65.6436 73.9595 65.6436 73.9595C65.6436 74.2333 65.3972 74.4752 64.9043 74.6851C64.4114 74.895 63.841 75 63.193 75C62.5997 75 62.0886 74.8859 61.6596 74.6577C61.2398 74.4204 60.9203 74.0736 60.7013 73.6172C60.4822 73.1609 60.3727 72.6041 60.3727 71.947C60.3727 71.8648 60.3818 71.7234 60.4001 71.5226C60.4183 71.3127 60.4366 71.0434 60.4549 70.7148ZM74.7616 69.1678C74.5334 69.2408 74.3737 69.2773 74.2824 69.2773C73.963 69.2773 73.6983 69.1587 73.4884 68.9213C73.2876 68.684 73.1872 68.3829 73.1872 68.0178C73.1872 67.2967 73.4427 66.3658 73.9538 65.2249C74.465 64.084 75.0035 63.2397 75.5693 62.6921C75.9801 62.2814 76.4455 62.076 76.9658 62.076C77.3674 62.076 77.7142 62.2129 78.0063 62.4867C78.2983 62.7514 78.522 63.1393 78.6771 63.6504C78.8323 64.1524 78.9099 64.7411 78.9099 65.4165C78.9099 67.1142 78.5539 68.7069 77.842 70.1946C77.1301 71.6823 76.1808 72.8688 74.9943 73.7542C73.8078 74.6395 72.5346 75.0821 71.1746 75.0821C70.2893 75.0821 69.5181 74.8722 68.8609 74.4524C68.2038 74.0325 67.6926 73.4301 67.3276 72.6452C66.9716 71.8511 66.7936 70.9339 66.7936 69.8934C66.7936 68.9077 66.9533 67.8033 67.2728 66.5802C67.5922 65.3481 68.0395 64.0977 68.6145 62.829C69.1895 61.5512 69.874 60.3099 70.6681 59.1052C71.5078 57.8 72.4707 56.7823 73.5568 56.0521C74.3052 55.5228 75.0902 55.2581 75.9116 55.2581C76.7513 55.2581 77.4221 55.5136 77.9241 56.0248C78.4261 56.5359 78.6771 57.2158 78.6771 58.0647C78.6771 58.667 78.4444 59.3014 77.9789 59.9677C77.5225 60.6248 76.943 61.1679 76.2402 61.5968C75.5465 62.0258 74.8665 62.2403 74.2003 62.2403C73.8808 62.2403 73.7211 62.1582 73.7211 61.9939C73.7211 61.8661 73.8534 61.6334 74.1181 61.2957C74.5562 60.748 74.9259 60.1183 75.2271 59.4063C75.5283 58.6853 75.6789 58.0601 75.6789 57.5307C75.6789 57.047 75.6058 56.8051 75.4598 56.8051C75.2773 56.8051 74.9943 57.1063 74.611 57.7087C74.2276 58.3111 73.8854 59.0002 73.5842 59.776C72.8723 61.6379 72.3246 63.4086 71.9413 65.088C71.558 66.7582 71.3663 68.1821 71.3663 69.3595C71.3663 70.2448 71.5078 70.9932 71.7907 71.6047C72.0828 72.2071 72.4342 72.5083 72.8449 72.5083C73.3651 72.5083 73.7987 72.2162 74.1455 71.6321C74.4923 71.0388 74.6977 70.2174 74.7616 69.1678Z" fill="url(#paint0_linear)"/>
<defs>
<linearGradient id="paint0_linear" x1="-12.7019" y1="1.91248" x2="32.5574" y2="102.412" gradientUnits="userSpaceOnUse">
<stop stop-color="#0047FF"/>
<stop offset="1" stop-color="#CC00FF" stop-opacity="0.91"/>
</linearGradient>
</defs>
</svg>
