<svg width="72" height="72" viewBox="0 0 72 72" fill="none" xmlns="http://www.w3.org/2000/svg">
<rect width="72" height="72" rx="9" fill="url(#paint0_angular)"/>
<path d="M12.9267 33.0377L12.9084 33.5397C12.8232 34.7505 12.7137 35.7363 12.5799 36.4968C12.446 37.2574 12.2939 37.7229 12.1235 37.8933C11.8923 38.1428 11.5302 38.2675 11.0374 38.2675C10.508 38.2675 10.1277 38.1641 9.89649 37.9572C9.80522 37.8537 9.74437 37.7594 9.71394 37.6742C9.68352 37.5891 9.66831 37.4339 9.66831 37.2088V37.1266V37.0353V36.9258C9.68656 35.216 9.85085 33.4971 10.1612 31.769C10.4715 30.0409 10.8822 28.468 11.3933 27.0503C11.9044 25.6265 12.4642 24.5008 13.0727 23.6733C13.6812 22.8397 14.2866 22.4229 14.889 22.4229C15.1628 22.4229 15.3667 22.5172 15.5005 22.7058C15.6405 22.8883 15.7105 23.153 15.7105 23.4999C15.7105 24.0171 15.6557 24.5677 15.5462 25.1519C15.4366 25.7299 15.3028 26.2015 15.1446 26.5666C14.9925 26.9316 14.8373 27.1142 14.6791 27.1142C14.5331 27.1142 14.46 26.8586 14.46 26.3475V26.1741V26.0646C14.46 25.5534 14.4479 25.2188 14.4235 25.0606C14.4053 24.9024 14.3596 24.7959 14.2866 24.7411C14.2197 24.875 14.171 25.0302 14.1406 25.2066C13.9946 25.9368 13.8759 26.597 13.7846 27.1872C13.6934 27.7774 13.5565 28.7358 13.3739 30.0622C13.3678 30.1353 13.3587 30.2174 13.3465 30.3087C13.3344 30.3999 13.3252 30.4821 13.3192 30.5551H13.4469C13.5199 30.549 13.5869 30.546 13.6477 30.546C13.7086 30.5399 13.8029 30.5368 13.9307 30.5368C14.1619 30.5064 14.3688 30.4912 14.5513 30.4912C15.2754 30.4912 15.6374 30.6798 15.6374 31.0571C15.6374 31.2518 15.5675 31.4891 15.4275 31.769C15.2936 32.0428 15.1324 32.271 14.9438 32.4535C14.7551 32.6361 14.5391 32.7699 14.2958 32.8551C14.0584 32.9342 13.7147 32.989 13.2644 33.0194C13.167 33.0194 13.0971 33.0225 13.0545 33.0285C13.018 33.0285 12.9754 33.0316 12.9267 33.0377ZM19.5256 32.2162L19.4891 32.3988C19.4891 32.5022 19.4769 32.6513 19.4526 32.846C19.4282 33.1442 19.3948 33.3875 19.3522 33.5762C19.3096 33.7648 19.2457 33.923 19.1605 34.0508C19.0753 34.1725 18.9597 34.3033 18.8137 34.4432C18.3695 34.8509 17.9223 35.0548 17.472 35.0548C17.1069 35.0548 16.8361 34.9209 16.6597 34.6532C16.4893 34.3854 16.4041 33.9534 16.4041 33.3571C16.4041 32.8825 16.4558 32.2984 16.5593 31.6047C16.6688 30.905 16.7996 30.2782 16.9517 29.7245L17.0248 29.4872C17.0248 29.4507 17.043 29.3747 17.0795 29.2591C17.3047 28.4315 17.5115 27.82 17.7002 27.4245C17.8888 27.0229 18.117 26.7004 18.3847 26.457C18.622 26.2684 18.8897 26.1741 19.1879 26.1741C19.6199 26.1741 19.8815 26.4357 19.9728 26.959C20.058 26.886 20.1401 26.8008 20.2192 26.7035C20.3957 26.4905 20.5326 26.3505 20.63 26.2836C20.7273 26.2106 20.8399 26.1741 20.9677 26.1741C21.4909 26.1741 21.7526 26.6913 21.7526 27.7257C21.7526 28.2916 21.6917 28.8392 21.5701 29.3686C21.4484 29.8979 21.2932 30.33 21.1046 30.6646C20.922 30.9993 20.7395 31.1666 20.5569 31.1666C20.3561 31.1666 20.2557 30.7863 20.2557 30.0257C20.2557 29.6241 20.2314 29.3108 20.1827 29.0856C20.1401 28.8544 20.0702 28.6749 19.9728 28.5471C19.7903 28.8879 19.6716 29.6667 19.6169 30.8837C19.5743 31.5895 19.5438 32.0337 19.5256 32.2162ZM23.8336 35.0913C23.5598 35.073 23.3103 34.9483 23.0851 34.7171C22.86 34.4737 22.6988 34.212 22.6014 33.9321C22.5101 33.6461 22.4645 33.278 22.4645 32.8277C22.4645 31.8238 22.6501 30.692 23.0213 29.4325C23.3985 28.1668 23.8244 27.2511 24.2991 26.6852C24.4877 26.4479 24.7493 26.3293 25.084 26.3293C25.4369 26.3293 25.7198 26.4905 25.9328 26.813C26.1519 27.1355 26.2614 27.5584 26.2614 28.0817C26.2614 28.8544 26.1488 29.761 25.9237 30.8015C25.7046 31.8359 25.3943 32.9129 24.9927 34.0325C24.8345 34.4828 24.6398 34.787 24.4086 34.9452C24.2504 35.0426 24.0648 35.0913 23.8518 35.0913H23.8336ZM24.9288 25.9185C24.3569 25.9003 24.0709 25.5565 24.0709 24.8872C24.0709 24.5525 24.153 24.1661 24.3173 23.728C24.4877 23.2838 24.6794 22.9553 24.8923 22.7423C25.0018 22.6267 25.1114 22.5445 25.2209 22.4959C25.3365 22.4472 25.4825 22.4229 25.659 22.4229C25.9632 22.4229 26.1853 22.4989 26.3253 22.651C26.4713 22.7971 26.5443 23.0435 26.5443 23.3903C26.5443 23.8223 26.4683 24.2331 26.3161 24.6225C26.1701 25.0058 25.9724 25.3192 25.7229 25.5626C25.4734 25.7999 25.2178 25.9185 24.9562 25.9185H24.9288ZM30.3138 32.1615C30.5937 31.9728 30.8067 31.7842 30.9527 31.5956C31.2752 31.2001 31.5247 30.7468 31.7011 30.2357C31.8411 29.901 31.9506 29.5268 32.0297 29.113C32.1088 28.6993 32.1484 28.3129 32.1484 27.9539C32.1484 27.6192 32.0784 27.4519 31.9384 27.4519C31.7437 27.4519 31.4456 27.8809 31.044 28.7388C30.8067 29.256 30.612 29.7732 30.4598 30.2904C30.3138 30.8015 30.2408 31.2427 30.2408 31.6138C30.2408 31.7416 30.2651 31.9242 30.3138 32.1615ZM30.3321 32.4535C30.399 32.8186 30.6363 33.0012 31.044 33.0012C31.5003 33.0012 32.0936 32.7334 32.8238 32.198C33.2497 31.8877 33.5357 31.7325 33.6817 31.7325C33.8643 31.7325 34.0346 31.7812 34.1928 31.8785C34.351 31.9759 34.4301 32.0763 34.4301 32.1797C34.4301 32.2893 34.3419 32.4322 34.1655 32.6087C33.843 32.9312 33.4718 33.2476 33.0519 33.5579C32.6321 33.8622 32.2275 34.1177 31.838 34.3246C31.4486 34.5254 31.0592 34.6866 30.6698 34.8083C30.2803 34.9239 29.9335 34.9817 29.6293 34.9817C28.8687 34.9817 28.2602 34.7657 27.8039 34.3337C27.3475 33.8956 27.1193 33.3145 27.1193 32.5904C27.1193 32.0367 27.238 31.413 27.4753 30.7194C27.7187 30.0196 28.0442 29.3655 28.4519 28.7571C28.9326 28.0451 29.5228 27.4519 30.2225 26.9773C31.0866 26.4053 31.9141 26.1193 32.7051 26.1193C33.2771 26.1193 33.7243 26.3019 34.0468 26.667C34.3754 27.026 34.5397 27.5219 34.5397 28.1547C34.5397 28.6475 34.4088 29.1617 34.1472 29.6972C33.8916 30.2326 33.5113 30.7468 33.0063 31.2396C32.5925 31.6534 32.1849 31.9759 31.7833 32.2071C31.3878 32.4383 31.0409 32.5539 30.7428 32.5539C30.6089 32.5539 30.472 32.5205 30.3321 32.4535ZM39.0576 30.1809L39.6052 29.542C40.1589 28.9274 40.597 28.4711 40.9195 28.1729C41.2481 27.8687 41.5402 27.6496 41.7957 27.5158C42.0574 27.3819 42.322 27.315 42.5898 27.315C43.0218 27.315 43.326 27.4306 43.5025 27.6618C43.6789 27.893 43.7672 28.2946 43.7672 28.8666C43.7672 29.1039 43.7428 29.4538 43.6941 29.9162C43.6211 30.5308 43.5846 31.1088 43.5846 31.6504C43.5846 32.2588 43.615 32.7517 43.6759 33.1289C43.7185 33.3602 43.7824 33.5914 43.8676 33.8226C43.9284 34.0417 43.9588 34.1907 43.9588 34.2698C43.9588 34.3672 43.9223 34.4432 43.8493 34.498C43.6607 34.6623 43.4112 34.8053 43.1009 34.927C42.7906 35.0487 42.5289 35.1095 42.316 35.1095C41.9691 35.1095 41.6527 34.9909 41.3667 34.7536C41.0868 34.5163 40.8678 34.1877 40.7096 33.7678C40.5575 33.348 40.4814 32.8734 40.4814 32.344C40.4814 31.9911 40.5179 31.5743 40.5909 31.0936L40.5544 31.0571C40.2928 31.3492 40.0798 31.5804 39.9155 31.7508C39.7573 31.9211 39.6082 32.0824 39.4683 32.2345C38.7868 33.0133 38.2088 33.7161 37.7342 34.3428C37.5516 34.5862 37.3843 34.7992 37.2322 34.9817C37.007 35.2069 36.7515 35.3194 36.4655 35.3194C36.0761 35.3194 35.7597 35.1734 35.5163 34.8813C35.2729 34.5893 35.1512 34.212 35.1512 33.7496C35.1512 33.4636 35.1846 33.1137 35.2516 32.7C35.3185 32.2862 35.4067 31.8451 35.5163 31.3765C35.6319 30.9019 35.7657 30.4152 35.9179 29.9162C36.0761 29.4173 36.2464 28.9426 36.429 28.4924C36.7089 27.744 37.0496 27.1598 37.4512 26.74C37.725 26.4662 38.0566 26.3293 38.4461 26.3293C39.0789 26.3293 39.3953 26.74 39.3953 27.5614C39.3953 28.1638 39.2705 29.0248 39.0211 30.1444L39.0576 30.1809ZM50.4756 30.9841V30.4547C50.1653 30.7285 49.934 30.8654 49.7819 30.8654C49.6967 30.8654 49.6541 30.8228 49.6541 30.7376C49.6541 30.7011 49.6724 30.6251 49.7089 30.5095C49.8367 30.1444 49.9006 29.7915 49.9006 29.4507C49.9006 28.9579 49.7941 28.4467 49.5811 27.9174C49.4899 27.6436 49.3773 27.5066 49.2434 27.5066C49.1765 27.5066 49.1217 27.5371 49.0791 27.5979C48.8783 27.8291 48.6867 28.1577 48.5041 28.5836C48.3216 29.0035 48.1695 29.4629 48.0478 29.9618C47.9322 30.4547 47.8744 30.8928 47.8744 31.2761C47.8744 32.0002 48.0934 32.3623 48.5315 32.3623C48.7506 32.3623 49.0426 32.2345 49.4077 31.9789C49.7789 31.7173 50.1348 31.3857 50.4756 30.9841ZM50.7585 26.6487L50.8498 26.2745C51.0384 25.4409 51.2088 24.7685 51.3609 24.2574C51.513 23.7402 51.6682 23.3051 51.8264 22.9522C51.9907 22.5932 52.1519 22.3346 52.3101 22.1764C52.5657 21.9026 53.0251 21.7657 53.6883 21.7657C53.9804 21.7657 54.1964 21.7809 54.3363 21.8113C54.4824 21.8418 54.598 21.8965 54.6832 21.9756C54.3911 22.8822 54.1873 23.5637 54.0717 24.0201C53.9621 24.4704 53.8404 25.091 53.7066 25.882C53.4997 27.172 53.3963 28.3372 53.3963 29.3777C53.3963 30.0653 53.451 30.7802 53.5605 31.5226C53.6762 32.2588 53.8617 33.0803 54.1173 33.9869C53.7948 34.212 53.4845 34.4037 53.1863 34.5619C52.8943 34.7201 52.6144 34.8448 52.3466 34.9361C52.085 35.0274 51.8538 35.073 51.653 35.073C51.3001 35.073 51.0506 34.8996 50.9046 34.5528C50.7829 34.2668 50.7038 34.0386 50.6673 33.8682C50.6307 33.6918 50.5669 33.208 50.4756 32.417C49.6602 33.2689 48.8783 33.9413 48.1299 34.4341C47.3876 34.9209 46.7943 35.1643 46.3501 35.1643C45.839 35.1643 45.4192 34.9574 45.0906 34.5436C44.7681 34.1238 44.6069 33.5853 44.6069 32.9281C44.6069 32.3379 44.7316 31.6838 44.9811 30.9658C45.2366 30.2417 45.5865 29.542 46.0307 28.8666C46.3228 28.4224 46.6209 28.0482 46.9251 27.744C47.2355 27.4336 47.5853 27.1476 47.9748 26.886C48.6806 26.4236 49.2708 26.1923 49.7454 26.1923C49.9766 26.1923 50.3143 26.3445 50.7585 26.6487ZM57.7225 35.3925C58.0815 35.3742 58.407 35.2008 58.6991 34.8722C58.9973 34.5376 59.1463 34.1755 59.1463 33.7861C59.1463 33.5184 59.0581 33.3054 58.8817 33.1472C58.693 32.9586 58.2701 32.773 57.613 32.5904C56.6455 32.3105 56.0157 31.9972 55.7237 31.6504C55.4499 31.3705 55.313 31.0358 55.313 30.6464C55.313 29.9466 55.5655 29.2469 56.0705 28.5471C56.5816 27.8474 57.2327 27.2754 58.0237 26.8312C58.8147 26.381 59.6118 26.1558 60.415 26.1558C60.8044 26.1558 61.1695 26.2471 61.5103 26.4297C61.851 26.6122 62.1218 26.8556 62.3226 27.1598C62.5234 27.458 62.6238 27.7835 62.6238 28.1364C62.6238 28.4832 62.5142 28.8422 62.2952 29.2134C62.0761 29.5846 61.7993 29.8949 61.4646 30.1444C61.136 30.3878 60.8227 30.5095 60.5245 30.5095C60.3542 30.5095 60.2051 30.473 60.0773 30.3999C59.9556 30.3269 59.8948 30.2478 59.8948 30.1626C59.8948 30.0774 59.9191 29.9527 59.9678 29.7884C60.1016 29.2651 60.1686 28.8088 60.1686 28.4194C60.1686 28.036 60.053 27.674 59.8217 27.3332C59.5236 27.5401 59.3289 27.7044 59.2376 27.8261C59.0064 28.0938 58.8269 28.3981 58.6991 28.7388C58.5592 29.0856 58.4892 29.4142 58.4892 29.7245C58.4892 29.9436 58.5379 30.12 58.6352 30.2539C58.7387 30.3817 58.9029 30.4912 59.1281 30.5825C59.3593 30.6738 59.7061 30.7742 60.1686 30.8837C60.9413 31.0723 61.4859 31.2548 61.8023 31.4313C61.8753 31.4739 61.9879 31.5621 62.14 31.696C62.3712 31.9455 62.4869 32.268 62.4869 32.6635C62.4869 33.0833 62.356 33.5092 62.0944 33.9413C61.8327 34.3672 61.4281 34.8083 60.8805 35.2647C60.2964 35.7575 59.7153 36.1105 59.1372 36.3234C58.5592 36.5364 57.9203 36.6429 57.2205 36.6429C56.5451 36.6429 56.0127 36.509 55.6233 36.2413C55.2399 35.9736 55.0483 35.6085 55.0483 35.146C55.0483 34.8175 55.176 34.4858 55.4316 34.1512C55.6872 33.8104 56.0036 33.5336 56.3808 33.3206C56.7642 33.1076 57.1384 33.0012 57.5035 33.0012C57.7773 33.0012 57.9142 33.062 57.9142 33.1837C57.9142 33.2446 57.8746 33.345 57.7955 33.4849C57.5582 33.9108 57.4396 34.3033 57.4396 34.6623C57.4396 34.9179 57.5339 35.1612 57.7225 35.3925ZM24.2443 42.1923C24.7067 42.2106 25.0749 42.3445 25.3487 42.5939C25.6225 42.8434 25.7594 43.1781 25.7594 43.5979C25.7594 43.963 25.6529 44.3311 25.4399 44.7023C25.2331 45.0735 24.9684 45.3777 24.6459 45.615C24.3295 45.8523 24.01 45.971 23.6875 45.971C23.4989 45.971 23.4046 45.904 23.4046 45.7702C23.4046 45.7215 23.4411 45.615 23.5141 45.4507C23.7514 45.0491 23.8701 44.5867 23.8701 44.0634C23.8701 43.8018 23.8397 43.6709 23.7788 43.6709C23.6936 43.6709 23.5719 43.7805 23.4137 43.9995C23.2555 44.2186 23.1217 44.4772 23.0121 44.7753C22.8235 45.2438 22.6653 45.7428 22.5375 46.2722C22.4158 46.8015 22.355 47.2488 22.355 47.6138C22.355 48.0276 22.4158 48.3531 22.5375 48.5904C22.6653 48.8277 22.8418 48.9464 23.0669 48.9464C23.2738 48.9464 23.5506 48.8369 23.8975 48.6178C24.2443 48.3988 24.5729 48.128 24.8832 47.8055C25.011 47.6412 25.1235 47.5591 25.2209 47.5591C25.3669 47.5591 25.4399 47.6412 25.4399 47.8055C25.4399 48.5539 25.1479 49.2324 24.5637 49.8409C24.1621 50.2425 23.6997 50.568 23.1764 50.8175C22.6592 51.0608 22.1937 51.1825 21.78 51.1825C21.0559 51.1825 20.4535 50.9544 19.9728 50.498C19.4921 50.0417 19.2518 49.4666 19.2518 48.773C19.2518 48.0793 19.4039 47.3522 19.7081 46.5916C20.0184 45.8249 20.4383 45.0978 20.9677 44.4102C21.5031 43.7227 22.1085 43.1476 22.784 42.6852C23.2707 42.3566 23.7453 42.1923 24.2078 42.1923H24.2443ZM31.3634 44.1729C31.6068 43.4854 31.8107 42.7674 31.9749 42.0189C32.1392 41.2644 32.2214 40.6864 32.2214 40.2848C32.2214 40.1753 32.191 40.1205 32.1301 40.1205C32.0328 40.1205 31.8624 40.3395 31.619 40.7776C31.3756 41.2097 31.1718 41.6508 31.0075 42.1011C30.6546 43.0929 30.3807 43.9174 30.186 44.5745C29.9974 45.2256 29.8666 45.7732 29.7936 46.2174C29.7206 46.6616 29.684 47.1149 29.684 47.5773C29.684 47.9728 29.7266 48.2619 29.8118 48.4444C29.9031 48.627 30.0461 48.7182 30.2408 48.7182C30.5755 48.7182 30.9497 48.5722 31.3634 48.2801C31.7772 47.982 32.1514 47.5925 32.4861 47.1119C32.7477 46.7529 32.9515 46.5734 33.0976 46.5734C33.2862 46.5734 33.3805 46.7224 33.3805 47.0206C33.3805 47.6716 33.1767 48.3075 32.769 48.9281C32.3613 49.5488 31.835 50.0538 31.19 50.4432C30.5511 50.8266 29.897 51.0183 29.2277 51.0183C28.4062 51.0183 27.7369 50.7597 27.2197 50.2425C26.7025 49.7252 26.4439 49.0498 26.4439 48.2162C26.4439 47.5347 26.59 46.7376 26.882 45.8249C27.1741 44.9061 27.5635 43.9843 28.0503 43.0594C28.5432 42.1285 29.0817 41.2857 29.6658 40.5312C30.2499 39.7767 30.828 39.1987 31.3999 38.7971C31.7529 38.5354 32.1453 38.4046 32.5773 38.4046C32.9059 38.4046 33.2041 38.508 33.4718 38.7149C33.7395 38.9157 33.9464 39.1987 34.0924 39.5637C34.2385 39.9288 34.3115 40.3335 34.3115 40.7776C34.3115 41.7329 34.1229 42.667 33.7456 43.5797C33.3744 44.4924 32.8542 45.2834 32.1849 45.9527C31.8685 46.2752 31.5642 46.5277 31.2722 46.7103C30.9801 46.8928 30.7245 46.9841 30.5055 46.9841C30.2925 46.9841 30.186 46.9019 30.186 46.7376C30.186 46.6464 30.2651 46.473 30.4233 46.2174C30.6363 45.8827 30.8858 45.3777 31.1718 44.7023C31.1961 44.6354 31.2235 44.5654 31.2539 44.4924C31.2843 44.4133 31.3208 44.3068 31.3634 44.1729ZM40.6366 48.1432L40.4814 48.271C40.451 48.2893 40.2471 48.4444 39.8699 48.7365C39.1397 49.3084 38.5373 49.7618 38.0627 50.0964C37.5881 50.425 37.1926 50.6684 36.8762 50.8266C36.5598 50.9787 36.3042 51.0548 36.1095 51.0548C35.7809 51.0548 35.5163 50.9209 35.3155 50.6532C35.1208 50.3794 35.0234 50.0264 35.0234 49.5944C35.0234 48.8643 35.1329 48.0154 35.352 47.048C35.571 46.0744 35.8661 45.1161 36.2373 44.1729C36.645 43.1264 37.1439 42.4875 37.7341 42.2562C37.941 42.165 38.1844 42.1193 38.4643 42.1193C38.8477 42.1193 39.158 42.238 39.3953 42.4753C39.6326 42.7126 39.7512 43.026 39.7512 43.4154C39.7512 43.6831 39.7056 43.966 39.6143 44.2642C39.5231 44.5624 39.377 44.9183 39.1762 45.3321L39.0667 45.5968C38.5434 46.7042 38.2818 47.3765 38.2818 47.6138C38.2818 47.7538 38.3305 47.8238 38.4278 47.8238C38.5191 47.8238 38.6377 47.7599 38.7838 47.6321C38.9298 47.5043 39.1549 47.2701 39.4592 46.9293C39.6478 46.6981 39.9155 46.4091 40.2624 46.0622L40.6001 45.7245L40.8921 45.4142C41.5067 44.8057 42.0087 44.3676 42.3981 44.0999C42.7875 43.8261 43.11 43.6892 43.3656 43.6892C43.8523 43.6892 44.0957 44.1121 44.0957 44.9579C44.0957 45.1343 44.0744 45.4477 44.0318 45.8979C43.9588 46.7742 43.9223 47.5165 43.9223 48.125C43.9284 48.2467 43.9315 48.3592 43.9315 48.4627C43.9375 48.56 43.9406 48.6878 43.9406 48.846C43.9832 49.2537 44.0136 49.567 44.0318 49.7861C44.0744 50.1329 44.0957 50.3063 44.0957 50.3063C44.0957 50.4889 43.9315 50.6501 43.6029 50.7901C43.2743 50.93 42.894 51 42.462 51C42.0665 51 41.7257 50.9239 41.4398 50.7718C41.1599 50.6136 40.9469 50.3824 40.8009 50.0782C40.6548 49.7739 40.5818 49.4028 40.5818 48.9647C40.5818 48.9099 40.5879 48.8156 40.6001 48.6817C40.6122 48.5418 40.6244 48.3623 40.6366 48.1432ZM50.1744 47.1119C50.0223 47.1605 49.9158 47.1849 49.8549 47.1849C49.642 47.1849 49.4655 47.1058 49.3256 46.9476C49.1917 46.7894 49.1248 46.5886 49.1248 46.3452C49.1248 45.8645 49.2951 45.2438 49.6359 44.4832C49.9766 43.7227 50.3356 43.1598 50.7129 42.7947C50.9867 42.5209 51.297 42.384 51.6439 42.384C51.9116 42.384 52.1428 42.4753 52.3375 42.6578C52.5322 42.8343 52.6813 43.0929 52.7847 43.4336C52.8882 43.7683 52.9399 44.1608 52.9399 44.611C52.9399 45.7428 52.7026 46.8046 52.228 47.7964C51.7534 48.7882 51.1206 49.5792 50.3296 50.1694C49.5385 50.7597 48.6897 51.0548 47.7831 51.0548C47.1929 51.0548 46.6787 50.9148 46.2406 50.6349C45.8025 50.355 45.4618 49.9534 45.2184 49.4301C44.9811 48.9008 44.8624 48.2893 44.8624 47.5956C44.8624 46.9384 44.9689 46.2022 45.1819 45.3868C45.3948 44.5654 45.693 43.7318 46.0763 42.886C46.4597 42.0341 46.916 41.2066 47.4454 40.4034C48.0052 39.5333 48.6471 38.8549 49.3712 38.3681C49.8702 38.0152 50.3934 37.8387 50.9411 37.8387C51.5009 37.8387 51.9481 38.0091 52.2828 38.3498C52.6174 38.6906 52.7847 39.1439 52.7847 39.7098C52.7847 40.1114 52.6296 40.5343 52.3193 40.9784C52.015 41.4165 51.6286 41.7786 51.1601 42.0646C50.6977 42.3505 50.2444 42.4935 49.8002 42.4935C49.5872 42.4935 49.4807 42.4388 49.4807 42.3293C49.4807 42.2441 49.569 42.0889 49.7454 41.8638C50.0375 41.4987 50.2839 41.0788 50.4847 40.6042C50.6855 40.1235 50.7859 39.7067 50.7859 39.3538C50.7859 39.0313 50.7372 38.8701 50.6399 38.8701C50.5182 38.8701 50.3296 39.0709 50.074 39.4725C49.8184 39.8741 49.5903 40.3335 49.3895 40.8507C48.9149 42.0919 48.5498 43.2724 48.2942 44.392C48.0386 45.5055 47.9109 46.4547 47.9109 47.2396C47.9109 47.8299 48.0052 48.3288 48.1938 48.7365C48.3885 49.1381 48.6228 49.3389 48.8966 49.3389C49.2434 49.3389 49.5325 49.1442 49.7637 48.7547C49.9949 48.3592 50.1318 47.8116 50.1744 47.1119Z" fill="url(#paint1_linear)"/>
<defs>
<radialGradient id="paint0_angular" cx="0" cy="0" r="1" gradientUnits="userSpaceOnUse" gradientTransform="translate(36 36) rotate(90) scale(36)">
<stop offset="0.133279" stop-color="#A4F4FF"/>
<stop offset="0.639079" stop-color="#D273FF" stop-opacity="0"/>
<stop offset="0.952193" stop-color="#B5C5FF" stop-opacity="0.45"/>
</radialGradient>
<linearGradient id="paint1_linear" x1="-8.13462" y1="1.60832" x2="22.0382" y2="68.6078" gradientUnits="userSpaceOnUse">
<stop stop-color="#0047FF"/>
<stop offset="1" stop-color="#CC00FF" stop-opacity="0.91"/>
</linearGradient>
</defs>
</svg>
