<svg width="25" height="25" viewBox="0 0 25 25" fill="none" xmlns="http://www.w3.org/2000/svg">
<g clip-path="url(#clip0)">
<path d="M12.931 15.3052C14.5878 15.3052 15.931 13.962 15.931 12.3052C15.931 10.6483 14.5878 9.30518 12.931 9.30518C11.2741 9.30518 9.93097 10.6483 9.93097 12.3052C9.93097 13.962 11.2741 15.3052 12.931 15.3052Z" stroke="#2D2D2D" stroke-width="2" stroke-linecap="round" stroke-linejoin="round"/>
<path d="M20.331 15.3052C20.1979 15.6068 20.1581 15.9414 20.217 16.2658C20.2758 16.5902 20.4304 16.8895 20.661 17.1252L20.721 17.1852C20.9069 17.3709 21.0544 17.5915 21.1551 17.8343C21.2557 18.0771 21.3075 18.3373 21.3075 18.6002C21.3075 18.863 21.2557 19.1233 21.1551 19.3661C21.0544 19.6089 20.9069 19.8294 20.721 20.0152C20.5352 20.2011 20.3146 20.3486 20.0718 20.4493C19.8291 20.5499 19.5688 20.6017 19.306 20.6017C19.0431 20.6017 18.7829 20.5499 18.5401 20.4493C18.2973 20.3486 18.0767 20.2011 17.891 20.0152L17.831 19.9552C17.5953 19.7246 17.296 19.57 16.9716 19.5112C16.6472 19.4524 16.3126 19.4921 16.011 19.6252C15.7152 19.7519 15.463 19.9624 15.2853 20.2307C15.1076 20.499 15.0123 20.8134 15.011 21.1352V21.3052C15.011 21.8356 14.8003 22.3443 14.4252 22.7194C14.0501 23.0945 13.5414 23.3052 13.011 23.3052C12.4805 23.3052 11.9718 23.0945 11.5968 22.7194C11.2217 22.3443 11.011 21.8356 11.011 21.3052V21.2152C11.0032 20.8842 10.8961 20.5632 10.7035 20.2939C10.5109 20.0246 10.2417 19.8195 9.93097 19.7052C9.62935 19.5721 9.29478 19.5324 8.97038 19.5912C8.64599 19.65 8.34665 19.8046 8.11097 20.0352L8.05097 20.0952C7.86522 20.2811 7.64465 20.4286 7.40185 20.5293C7.15905 20.6299 6.8988 20.6817 6.63597 20.6817C6.37314 20.6817 6.11288 20.6299 5.87009 20.5293C5.62729 20.4286 5.40672 20.2811 5.22097 20.0952C5.03502 19.9094 4.8875 19.6889 4.78685 19.4461C4.6862 19.2033 4.6344 18.943 4.6344 18.6802C4.6344 18.4173 4.6862 18.1571 4.78685 17.9143C4.8875 17.6715 5.03502 17.4509 5.22097 17.2652L5.28097 17.2052C5.51151 16.9695 5.66615 16.6702 5.72497 16.3458C5.78379 16.0214 5.74408 15.6868 5.61097 15.3852C5.48421 15.0894 5.27372 14.8372 5.00543 14.6595C4.73714 14.4818 4.42276 14.3865 4.10097 14.3852H3.93097C3.40054 14.3852 2.89183 14.1745 2.51676 13.7994C2.14168 13.4243 1.93097 12.9156 1.93097 12.3852C1.93097 11.8547 2.14168 11.346 2.51676 10.971C2.89183 10.5959 3.40054 10.3852 3.93097 10.3852H4.02097C4.35196 10.3774 4.67297 10.2703 4.94227 10.0777C5.21156 9.88508 5.41668 9.61591 5.53097 9.30518C5.66408 9.00356 5.70379 8.66898 5.64497 8.34459C5.58615 8.02019 5.43151 7.72085 5.20097 7.48518L5.14097 7.42518C4.95502 7.23943 4.8075 7.01885 4.70685 6.77606C4.6062 6.53326 4.5544 6.27301 4.5544 6.01018C4.5544 5.74734 4.6062 5.48709 4.70685 5.2443C4.8075 5.0015 4.95502 4.78092 5.14097 4.59518C5.32672 4.40922 5.54729 4.2617 5.79009 4.16106C6.03288 4.06041 6.29314 4.0086 6.55597 4.0086C6.8188 4.0086 7.07905 4.06041 7.32185 4.16106C7.56465 4.2617 7.78522 4.40922 7.97097 4.59518L8.03097 4.65518C8.26665 4.88571 8.56599 5.04036 8.89038 5.09918C9.21478 5.158 9.54935 5.11829 9.85097 4.98518H9.93097C10.2267 4.85841 10.479 4.64793 10.6567 4.37964C10.8343 4.11135 10.9297 3.79696 10.931 3.47518V3.30518C10.931 2.77474 11.1417 2.26603 11.5168 1.89096C11.8918 1.51589 12.4005 1.30518 12.931 1.30518C13.4614 1.30518 13.9701 1.51589 14.3452 1.89096C14.7203 2.26603 14.931 2.77474 14.931 3.30518V3.39518C14.9323 3.71696 15.0276 4.03135 15.2053 4.29964C15.383 4.56793 15.6352 4.77841 15.931 4.90518C16.2326 5.03829 16.5672 5.078 16.8916 5.01918C17.216 4.96036 17.5153 4.80571 17.751 4.57518L17.811 4.51518C17.9967 4.32922 18.2173 4.1817 18.4601 4.08106C18.7029 3.98041 18.9631 3.9286 19.226 3.9286C19.4888 3.9286 19.7491 3.98041 19.9918 4.08106C20.2346 4.1817 20.4552 4.32922 20.641 4.51518C20.8269 4.70092 20.9744 4.9215 21.0751 5.1643C21.1757 5.40709 21.2275 5.66734 21.2275 5.93018C21.2275 6.19301 21.1757 6.45326 21.0751 6.69606C20.9744 6.93885 20.8269 7.15943 20.641 7.34518L20.581 7.40518C20.3504 7.64085 20.1958 7.94019 20.137 8.26459C20.0781 8.58898 20.1179 8.92356 20.251 9.22518V9.30518C20.3777 9.60094 20.5882 9.85319 20.8565 10.0309C21.1248 10.2085 21.4392 10.3039 21.761 10.3052H21.931C22.4614 10.3052 22.9701 10.5159 23.3452 10.891C23.7203 11.266 23.931 11.7747 23.931 12.3052C23.931 12.8356 23.7203 13.3443 23.3452 13.7194C22.9701 14.0945 22.4614 14.3052 21.931 14.3052H21.841C21.5192 14.3065 21.2048 14.4018 20.9365 14.5795C20.6682 14.7572 20.4577 15.0094 20.331 15.3052V15.3052Z" stroke="#2D2D2D" stroke-width="2" stroke-linecap="round" stroke-linejoin="round"/>
</g>
<defs>
<clipPath id="clip0">
<rect width="24" height="24" fill="white" transform="translate(0.930969 0.305176)"/>
</clipPath>
</defs>
</svg>
